<?xml version="1.0" encoding="UTF-8"?>
<svg xmlns="http://www.w3.org/2000/svg" xmlns:xlink="http://www.w3.org/1999/xlink" width="3606" height="3082" viewBox="0 0 3606 3082">
<path fill-rule="nonzero" fill="rgb(97.65625%, 97.65625%, 97.65625%)" fill-opacity="1" d="M 0.4375 0 L 3604.859375 0 C 3605.089844 0 3605.300781 0.25 3605.300781 0.570312 L 3605.300781 3081.425781 C 3605.300781 3081.746094 3605.101562 3082 3604.859375 3082 L 0.4375 3082 C 0.195312 3082 0 3081.746094 0 3081.425781 L 0 0.570312 C 0 0.261719 0.195312 0 0.4375 0 Z M 0.4375 0 "/>
<path fill-rule="nonzero" fill="rgb(51.756287%, 0%, 83.984375%)" fill-opacity="1" d="M 1383.601562 570.261719 C 1315.019531 570.261719 1259.808594 622.730469 1259.808594 687.898438 L 1259.808594 2290.632812 C 1259.808594 2355.804688 1315.019531 2408.273438 1383.601562 2408.273438 L 2138.949219 2408.273438 C 2207.539062 2408.273438 2262.75 2355.804688 2262.75 2290.632812 L 2262.75 1247.039062 C 2269.769531 1247.039062 2275.421875 1241.390625 2275.421875 1234.371094 L 2275.421875 1036.820312 C 2275.421875 1029.800781 2269.769531 1024.148438 2262.75 1024.148438 L 2262.75 687.898438 C 2262.75 622.730469 2207.539062 570.261719 2138.949219 570.261719 Z M 1383.601562 570.261719 "/>
<path fill-rule="nonzero" fill="rgb(100%, 100%, 100%)" fill-opacity="1" d="M 1383.609375 521.800781 C 1290.308594 521.800781 1211.328125 595.351562 1211.328125 687.898438 L 1211.328125 2290.640625 C 1211.328125 2383.191406 1290.308594 2456.742188 1383.609375 2456.742188 L 2138.949219 2456.742188 C 2232.25 2456.742188 2311.230469 2383.191406 2311.230469 2290.640625 L 2311.230469 1269.25 C 2318.609375 1259.160156 2323.890625 1247.460938 2323.890625 1234.371094 L 2323.890625 1036.808594 C 2323.890625 1023.710938 2318.609375 1012.019531 2311.230469 1001.929688 L 2311.230469 687.898438 C 2311.230469 595.351562 2232.25 521.800781 2138.949219 521.800781 Z M 1383.609375 618.738281 L 2138.949219 618.738281 C 2182.808594 618.738281 2214.289062 650.109375 2214.289062 687.898438 L 2214.289062 1024.148438 C 2214.789062 1035.5 2219.269531 1046.320312 2226.949219 1054.699219 L 2226.949219 1216.46875 C 2219.269531 1224.871094 2214.789062 1235.691406 2214.289062 1247.058594 L 2214.289062 2290.640625 C 2214.289062 2328.4375 2182.808594 2359.800781 2138.949219 2359.800781 L 1383.609375 2359.800781 C 1339.75 2359.800781 1308.28125 2328.4375 1308.28125 2290.640625 L 1308.28125 687.898438 C 1308.28125 650.109375 1339.75 618.738281 1383.609375 618.738281 Z M 1383.609375 618.738281 "/>
<path fill-rule="nonzero" fill="rgb(96.484375%, 100%, 39.988708%)" fill-opacity="1" d="M 1425.980469 637.011719 C 1365.089844 637.011719 1316.070312 685.660156 1316.070312 746.101562 L 1316.070312 2232.433594 C 1316.070312 2292.871094 1365.089844 2341.523438 1425.980469 2341.523438 L 2096.589844 2341.523438 C 2157.46875 2341.523438 2206.488281 2292.871094 2206.488281 2232.433594 L 2206.488281 746.101562 C 2206.488281 685.660156 2157.46875 637.011719 2096.589844 637.011719 L 2012.429688 637.011719 L 2009.121094 673.421875 C 2008.121094 684.421875 1989.429688 693.269531 1967.210938 693.269531 L 1555.351562 693.269531 C 1533.128906 693.269531 1514.441406 684.421875 1513.441406 673.421875 L 1510.140625 637.011719 Z M 1425.980469 637.011719 "/>
<path fill-rule="nonzero" fill="rgb(100%, 100%, 100%)" fill-opacity="1" d="M 1425.980469 588.539062 C 1339.269531 588.539062 1267.589844 659.449219 1267.589844 746.101562 L 1267.589844 2232.441406 C 1267.589844 2319.089844 1339.269531 2390 1425.980469 2390 L 2096.578125 2390 C 2183.289062 2390 2254.96875 2319.089844 2254.96875 2232.441406 L 2254.96875 746.101562 C 2254.96875 659.449219 2183.289062 588.539062 2096.578125 588.539062 L 2012.421875 588.539062 C 1987.359375 588.550781 1966.441406 607.660156 1964.160156 632.609375 L 1963.050781 644.800781 L 1559.511719 644.800781 L 1558.398438 632.628906 C 1556.128906 607.671875 1535.210938 588.550781 1510.140625 588.539062 Z M 1465.171875 677.789062 C 1468.03125 709.230469 1489.828125 723.769531 1505.691406 731.28125 C 1521.550781 738.789062 1537.800781 741.738281 1555.339844 741.738281 L 1967.21875 741.738281 C 1984.761719 741.738281 2001.011719 738.789062 2016.871094 731.28125 C 2032.730469 723.769531 2054.53125 709.238281 2057.390625 677.820312 L 2056.679688 685.480469 L 2096.578125 685.480469 C 2131.648438 685.480469 2158.019531 711.871094 2158.019531 746.101562 L 2158.019531 2232.441406 C 2158.019531 2266.671875 2131.648438 2293.054688 2096.578125 2293.054688 L 1425.980469 2293.054688 C 1390.910156 2293.054688 1364.539062 2266.671875 1364.539062 2232.441406 L 1364.539062 746.101562 C 1364.539062 711.871094 1390.910156 685.480469 1425.980469 685.480469 L 1465.859375 685.480469 Z M 1465.171875 677.789062 "/>
<path fill-rule="nonzero" fill="rgb(100%, 100%, 100%)" fill-opacity="1" d="M 1589.238281 868.371094 C 1558.648438 837.78125 1507.238281 837.78125 1476.640625 868.371094 L 1380.269531 964.75 C 1349.671875 995.351562 1349.671875 1046.761719 1380.269531 1077.351562 L 1391.589844 1088.679688 C 1422.191406 1119.28125 1473.601562 1119.28125 1504.191406 1088.679688 L 1600.570312 992.300781 C 1631.171875 961.710938 1631.171875 910.300781 1600.570312 879.699219 Z M 1589.238281 868.371094 "/>
<path fill-rule="nonzero" fill="rgb(98.826599%, 100%, 76.951599%)" fill-opacity="1" d="M 1554.96875 902.640625 L 1566.308594 913.980469 C 1578.5 926.179688 1578.5 945.820312 1566.308594 958.019531 L 1469.910156 1054.410156 C 1457.710938 1066.609375 1438.070312 1066.609375 1425.871094 1054.410156 L 1414.539062 1043.070312 C 1402.339844 1030.871094 1402.339844 1011.230469 1414.539062 999.03125 L 1510.921875 902.640625 C 1523.128906 890.441406 1542.769531 890.441406 1554.96875 902.640625 Z M 1554.96875 902.640625 "/>
<path fill-rule="nonzero" fill="rgb(100%, 100%, 100%)" fill-opacity="1" d="M 1702.730469 754.890625 C 1672.128906 724.289062 1620.730469 724.289062 1590.128906 754.890625 L 1535.519531 809.5 C 1504.929688 840.089844 1504.929688 891.5 1535.519531 922.089844 L 1546.851562 933.429688 C 1577.441406 964.019531 1628.859375 964.019531 1659.449219 933.429688 L 1714.058594 878.820312 C 1744.648438 848.21875 1744.648438 796.808594 1714.058594 766.21875 Z M 1702.730469 754.890625 "/>
<path fill-rule="nonzero" fill="rgb(98.826599%, 100%, 76.951599%)" fill-opacity="1" d="M 1668.449219 789.160156 L 1679.789062 800.488281 C 1691.988281 812.691406 1691.988281 832.339844 1679.789062 844.53125 L 1625.179688 899.148438 C 1612.980469 911.351562 1593.339844 911.351562 1581.140625 899.148438 L 1569.800781 887.808594 C 1557.601562 875.609375 1557.601562 855.96875 1569.800781 843.769531 L 1624.410156 789.160156 C 1636.609375 776.960938 1656.25 776.960938 1668.449219 789.160156 Z M 1668.449219 789.160156 "/>
<path fill-rule="nonzero" fill="rgb(100%, 100%, 100%)" fill-opacity="1" d="M 1962.5 2080.230469 C 1931.898438 2049.640625 1880.488281 2049.640625 1849.898438 2080.230469 L 1753.519531 2176.613281 C 1722.921875 2207.210938 1722.921875 2258.617188 1753.519531 2289.210938 L 1764.851562 2300.542969 C 1795.441406 2331.136719 1846.851562 2331.136719 1877.441406 2300.542969 L 1973.820312 2204.160156 C 2004.421875 2173.566406 2004.421875 2122.15625 1973.828125 2091.5625 Z M 1962.5 2080.230469 "/>
<path fill-rule="nonzero" fill="rgb(98.4375%, 99.21875%, 99.609375%)" fill-opacity="1" d="M 1928.21875 2114.503906 L 1939.558594 2125.839844 C 1951.761719 2138.039062 1951.761719 2157.683594 1939.558594 2169.882812 L 1843.171875 2266.273438 C 1830.96875 2278.472656 1811.320312 2278.472656 1799.128906 2266.273438 L 1787.789062 2254.933594 C 1775.589844 2242.734375 1775.589844 2223.09375 1787.789062 2210.890625 L 1884.179688 2114.503906 C 1896.378906 2102.300781 1916.019531 2102.300781 1928.21875 2114.503906 Z M 1928.21875 2114.503906 "/>
<path fill-rule="nonzero" fill="rgb(100%, 100%, 100%)" fill-opacity="1" d="M 2075.980469 1966.75 C 2045.390625 1936.148438 1993.980469 1936.148438 1963.378906 1966.75 L 1908.769531 2021.359375 C 1878.179688 2051.949219 1878.179688 2103.359375 1908.769531 2133.953125 L 1920.109375 2145.285156 C 1950.699219 2175.878906 2002.109375 2175.878906 2032.699219 2145.285156 L 2087.308594 2090.675781 C 2117.910156 2060.078125 2117.910156 2008.671875 2087.308594 1978.078125 Z M 2075.980469 1966.75 "/>
<path fill-rule="nonzero" fill="rgb(98.4375%, 99.21875%, 99.609375%)" fill-opacity="1" d="M 2041.710938 2001.019531 L 2053.039062 2012.351562 C 2065.238281 2024.550781 2065.238281 2044.191406 2053.039062 2056.390625 L 1998.429688 2111.007812 C 1986.230469 2123.207031 1966.589844 2123.207031 1954.390625 2111.007812 L 1943.050781 2099.671875 C 1930.851562 2087.46875 1930.851562 2067.828125 1943.050781 2055.621094 L 1997.660156 2001.019531 C 2009.859375 1988.820312 2029.511719 1988.820312 2041.710938 2001.019531 Z M 2041.710938 2001.019531 "/>
<path fill-rule="nonzero" fill="rgb(100%, 100%, 100%)" fill-opacity="1" d="M 1962.5 2080.230469 C 1931.898438 2049.640625 1880.488281 2049.640625 1849.898438 2080.230469 L 1753.519531 2176.613281 C 1722.921875 2207.210938 1722.921875 2258.617188 1753.519531 2289.210938 L 1764.851562 2300.542969 C 1795.441406 2331.136719 1846.851562 2331.136719 1877.441406 2300.542969 L 1973.820312 2204.160156 C 2004.421875 2173.566406 2004.421875 2122.15625 1973.828125 2091.5625 Z M 1962.5 2080.230469 "/>
<path fill-rule="nonzero" fill="rgb(98.826599%, 100%, 76.951599%)" fill-opacity="1" d="M 1928.21875 2114.503906 L 1939.558594 2125.839844 C 1951.761719 2138.039062 1951.761719 2157.683594 1939.558594 2169.882812 L 1843.171875 2266.273438 C 1830.96875 2278.472656 1811.320312 2278.472656 1799.128906 2266.273438 L 1787.789062 2254.933594 C 1775.589844 2242.734375 1775.589844 2223.09375 1787.789062 2210.890625 L 1884.179688 2114.503906 C 1896.378906 2102.300781 1916.019531 2102.300781 1928.21875 2114.503906 Z M 1928.21875 2114.503906 "/>
<path fill-rule="nonzero" fill="rgb(100%, 100%, 100%)" fill-opacity="1" d="M 2075.980469 1966.75 C 2045.390625 1936.148438 1993.980469 1936.148438 1963.378906 1966.75 L 1908.769531 2021.359375 C 1878.179688 2051.949219 1878.179688 2103.359375 1908.769531 2133.953125 L 1920.109375 2145.285156 C 1950.699219 2175.878906 2002.109375 2175.878906 2032.699219 2145.285156 L 2087.308594 2090.675781 C 2117.910156 2060.078125 2117.910156 2008.671875 2087.308594 1978.078125 Z M 2075.980469 1966.75 "/>
<path fill-rule="nonzero" fill="rgb(98.826599%, 100%, 76.951599%)" fill-opacity="1" d="M 2041.710938 2001.019531 L 2053.039062 2012.351562 C 2065.238281 2024.550781 2065.238281 2044.191406 2053.039062 2056.390625 L 1998.429688 2111.007812 C 1986.230469 2123.207031 1966.589844 2123.207031 1954.390625 2111.007812 L 1943.050781 2099.671875 C 1930.851562 2087.46875 1930.851562 2067.828125 1943.050781 2055.621094 L 1997.660156 2001.019531 C 2009.859375 1988.820312 2029.511719 1988.820312 2041.710938 2001.019531 Z M 2041.710938 2001.019531 "/>
<path fill-rule="nonzero" fill="rgb(100%, 100%, 100%)" fill-opacity="1" d="M 1891.898438 1004.269531 C 1691.109375 1004.269531 1527.960938 1167.421875 1527.960938 1368.210938 C 1527.960938 1418.410156 1538.101562 1466.441406 1556.480469 1510.050781 C 1574.871094 1553.660156 1601.460938 1592.871094 1634.351562 1625.761719 C 1619.371094 1610.78125 1627.96875 1611.898438 1626.160156 1624.769531 C 1624.351562 1637.628906 1619.070312 1657.238281 1612.640625 1676.269531 C 1599.789062 1714.339844 1583.179688 1750.308594 1583.179688 1750.308594 C 1574.839844 1768.28125 1578.28125 1789.53125 1591.871094 1803.949219 C 1605.460938 1818.371094 1626.460938 1823.070312 1644.910156 1815.820312 C 1644.910156 1815.820312 1699.621094 1794.28125 1759.480469 1772.839844 C 1789.410156 1762.109375 1820.621094 1751.410156 1846.179688 1743.648438 C 1871.730469 1735.890625 1897.070312 1732.148438 1891.898438 1732.148438 L 2303.390625 1732.148438 C 2504.179688 1732.148438 2667.339844 1569 2667.339844 1368.210938 C 2667.339844 1167.421875 2504.179688 1004.269531 2303.390625 1004.269531 Z M 1891.898438 1101.210938 L 2303.390625 1101.210938 C 2452.148438 1101.210938 2570.390625 1219.449219 2570.390625 1368.210938 C 2570.390625 1516.96875 2452.148438 1635.210938 2303.390625 1635.210938 L 1891.898438 1635.210938 C 1864.890625 1635.210938 1846.191406 1642.339844 1818.011719 1650.898438 C 1789.828125 1659.460938 1757.589844 1670.539062 1726.800781 1681.570312 C 1717.679688 1684.839844 1718.128906 1684.910156 1709.421875 1688.109375 C 1714.421875 1671.660156 1719.78125 1655.160156 1722.160156 1638.261719 C 1725.449219 1614.851562 1732.128906 1586.460938 1702.890625 1557.21875 C 1678.761719 1533.089844 1659.261719 1504.320312 1645.808594 1472.390625 C 1632.339844 1440.46875 1624.910156 1405.398438 1624.910156 1368.210938 C 1624.910156 1219.449219 1743.140625 1101.210938 1891.898438 1101.210938 Z M 1891.898438 1101.210938 "/>
<path fill-rule="nonzero" fill="rgb(100%, 52.929688%, 25.097656%)" fill-opacity="1" d="M 1891.898438 1052.730469 L 2303.390625 1052.730469 C 2478.160156 1052.730469 2618.859375 1193.429688 2618.859375 1368.210938 C 2618.859375 1542.980469 2478.160156 1683.679688 2303.390625 1683.679688 L 1891.898438 1683.679688 C 1848.210938 1683.679688 1627.140625 1770.71875 1627.140625 1770.71875 C 1627.140625 1770.71875 1697.128906 1620 1668.621094 1591.480469 C 1640.109375 1562.96875 1617.058594 1529 1601.140625 1491.230469 C 1585.21875 1453.460938 1576.429688 1411.898438 1576.429688 1368.210938 C 1576.429688 1193.429688 1717.128906 1052.730469 1891.898438 1052.730469 Z M 1891.898438 1052.730469 "/>
<path fill-rule="nonzero" fill="rgb(100%, 100%, 100%)" fill-opacity="1" d="M 1856.648438 1039.140625 C 1832.160156 1039.140625 1811.300781 1075.460938 1811.300781 1118.089844 C 1811.300781 1160.710938 1832.160156 1197.03125 1856.648438 1197.03125 L 1988.191406 1197.03125 C 2012.679688 1197.03125 2033.539062 1160.710938 2033.539062 1118.089844 C 2033.539062 1075.460938 2012.679688 1039.140625 1988.191406 1039.140625 Z M 1856.648438 1039.140625 "/>
<path fill-rule="nonzero" fill="rgb(100%, 76.951599%, 63.476562%)" fill-opacity="1" d="M 1996.800781 1118.089844 C 1996.800781 1126.390625 1992.960938 1133.078125 1988.191406 1133.078125 L 1856.648438 1133.078125 C 1851.878906 1133.078125 1848.039062 1126.390625 1848.039062 1118.089844 C 1848.039062 1109.78125 1851.878906 1103.101562 1856.648438 1103.101562 L 1988.191406 1103.101562 C 1992.960938 1103.101562 1996.800781 1109.78125 1996.800781 1118.089844 Z M 1996.800781 1118.089844 "/>
<path fill-rule="nonzero" fill="rgb(100%, 100%, 100%)" fill-opacity="1" d="M 1806.550781 1039.140625 C 1782.058594 1039.140625 1761.191406 1075.460938 1761.191406 1118.089844 C 1761.191406 1160.710938 1782.058594 1197.03125 1806.550781 1197.03125 L 1830.820312 1197.03125 C 1855.308594 1197.03125 1876.171875 1160.710938 1876.171875 1118.089844 C 1876.171875 1075.460938 1855.308594 1039.140625 1830.820312 1039.140625 Z M 1818.679688 1074.519531 C 1827.929688 1082.75 1834.671875 1099.558594 1834.671875 1118.089844 C 1834.671875 1136.621094 1827.929688 1153.429688 1818.679688 1161.660156 C 1809.429688 1153.429688 1802.691406 1136.621094 1802.691406 1118.089844 C 1802.691406 1099.558594 1809.429688 1082.75 1818.679688 1074.519531 Z M 1818.679688 1074.519531 "/>
<path fill-rule="nonzero" fill="rgb(100%, 76.951599%, 63.476562%)" fill-opacity="1" d="M 1797.929688 1118.089844 C 1797.929688 1126.390625 1801.769531 1133.078125 1806.550781 1133.078125 L 1830.820312 1133.078125 C 1835.589844 1133.078125 1839.429688 1126.390625 1839.429688 1118.089844 C 1839.429688 1109.78125 1835.589844 1103.101562 1830.820312 1103.101562 L 1806.550781 1103.101562 C 1801.769531 1103.101562 1797.929688 1109.78125 1797.929688 1118.089844 Z M 1797.929688 1118.089844 "/>
<path fill-rule="nonzero" fill="rgb(100%, 100%, 100%)" fill-opacity="1" d="M 2299.078125 1565.46875 C 2337.5 1565.46875 2370.089844 1592.671875 2370.089844 1624.738281 C 2370.089844 1656.820312 2337.5 1684.019531 2299.078125 1684.019531 L 2024.789062 1684.019531 C 1986.359375 1684.019531 1953.769531 1656.820312 1953.769531 1624.738281 C 1953.769531 1592.671875 1986.359375 1565.46875 2024.789062 1565.46875 Z M 2299.078125 1565.46875 "/>
<path fill-rule="nonzero" fill="rgb(100%, 76.951599%, 63.476562%)" fill-opacity="1" d="M 2006.828125 1624.738281 C 2006.828125 1633.050781 2014.839844 1639.730469 2024.789062 1639.730469 L 2299.078125 1639.730469 C 2309.03125 1639.730469 2317.039062 1633.050781 2317.039062 1624.738281 C 2317.039062 1616.441406 2309.03125 1609.75 2299.078125 1609.75 L 2024.789062 1609.75 C 2014.839844 1609.75 2006.828125 1616.441406 2006.828125 1624.738281 Z M 2006.828125 1624.738281 "/>
<path fill-rule="nonzero" fill="rgb(100%, 100%, 100%)" fill-opacity="1" d="M 2403.570312 1565.46875 C 2442 1565.46875 2474.589844 1592.671875 2474.589844 1624.738281 C 2474.589844 1656.820312 2442 1684.019531 2403.570312 1684.019531 L 2352.960938 1684.019531 C 2314.53125 1684.019531 2281.949219 1656.820312 2281.949219 1624.738281 C 2281.949219 1592.671875 2314.53125 1565.46875 2352.960938 1565.46875 Z M 2378.269531 1605.28125 C 2372.378906 1610.570312 2368.480469 1617.421875 2368.480469 1624.738281 C 2368.480469 1632.070312 2372.378906 1638.910156 2378.269531 1644.199219 C 2384.148438 1638.910156 2388.050781 1632.070312 2388.050781 1624.738281 C 2388.050781 1617.421875 2384.148438 1610.570312 2378.269531 1605.28125 Z M 2378.269531 1605.28125 "/>
<path fill-rule="nonzero" fill="rgb(100%, 76.951599%, 63.476562%)" fill-opacity="1" d="M 2421.53125 1624.738281 C 2421.53125 1633.050781 2413.519531 1639.730469 2403.570312 1639.730469 L 2352.960938 1639.730469 C 2343.011719 1639.730469 2335 1633.050781 2335 1624.738281 C 2335 1616.441406 2343.011719 1609.75 2352.960938 1609.75 L 2403.570312 1609.75 C 2413.519531 1609.75 2421.53125 1616.441406 2421.53125 1624.738281 Z M 2421.53125 1624.738281 "/>
<path fill-rule="nonzero" fill="rgb(97.65625%, 97.65625%, 97.65625%)" fill-opacity="1" d="M 2101.269531 1131.53125 C 2091.269531 1131.53125 2086.269531 1137.921875 2086.269531 1150.71875 L 2086.269531 1174.941406 C 2053.398438 1177.679688 2028.238281 1187.429688 2010.769531 1204.191406 C 1993.46875 1220.941406 1984.820312 1242.429688 1984.820312 1268.628906 C 1984.820312 1288.738281 1989.261719 1305.191406 1998.148438 1317.980469 C 2007.039062 1330.78125 2018.628906 1340.679688 2032.921875 1347.691406 C 2047.210938 1354.550781 2064.988281 1360.789062 2086.269531 1366.429688 L 2086.269531 1469.351562 C 2080.089844 1466.839844 2074.808594 1463.769531 2070.46875 1460.121094 C 2064.121094 1454.628906 2059.359375 1448.609375 2056.179688 1442.058594 C 2053 1435.359375 2049.269531 1425.769531 2044.988281 1413.269531 C 2043.078125 1407.480469 2039.671875 1402.988281 2034.75 1399.789062 C 2029.820312 1396.589844 2023.789062 1394.988281 2016.648438 1394.988281 C 2015.019531 1394.988281 2013.429688 1395.089844 2011.890625 1395.300781 C 2010.238281 1395.089844 2008.519531 1394.988281 2006.730469 1394.988281 C 1997.839844 1394.988281 1990.378906 1397.960938 1984.339844 1403.898438 C 1978.46875 1409.691406 1975.53125 1416.238281 1975.53125 1423.558594 C 1975.53125 1433.460938 1977.75 1443.589844 1982.199219 1453.941406 C 1986.640625 1464.148438 1993.46875 1474.058594 2002.679688 1483.648438 C 2012.050781 1493.101562 2023.628906 1501.019531 2037.441406 1507.421875 C 2051.421875 1513.820312 2067.691406 1518 2086.269531 1519.980469 L 2086.269531 1561.78125 C 2086.269531 1568.789062 2087.378906 1573.96875 2089.601562 1577.320312 C 2091.980469 1580.671875 2096.03125 1582.339844 2101.738281 1582.339844 C 2103.570312 1582.339844 2105.171875 1582.140625 2106.609375 1581.789062 C 2108.121094 1582.148438 2109.800781 1582.339844 2111.671875 1582.339844 C 2117.859375 1582.339844 2121.828125 1580.289062 2123.570312 1576.179688 C 2125.480469 1572.058594 2126.429688 1565.511719 2126.429688 1556.519531 L 2126.429688 1519.53125 C 2149.128906 1517.699219 2168.738281 1511.980469 2185.25 1502.390625 C 2201.761719 1492.789062 2214.21875 1480.449219 2222.640625 1465.371094 C 2231.210938 1450.140625 2235.5 1433.839844 2235.5 1416.46875 C 2235.5 1402.609375 2232.800781 1389.890625 2227.398438 1378.308594 C 2222.160156 1366.578125 2214.621094 1356.53125 2204.78125 1348.148438 C 2195.570312 1340.070312 2185.089844 1333.910156 2173.339844 1329.640625 C 2161.75 1325.371094 2146.121094 1320.648438 2126.429688 1315.46875 L 2126.429688 1224.339844 C 2140.738281 1231.351562 2150.058594 1242.679688 2154.371094 1258.351562 C 2158.980469 1274.488281 2169.058594 1282.570312 2184.621094 1282.570312 C 2186.230469 1282.570312 2187.769531 1282.429688 2189.289062 1282.21875 C 2190.96875 1282.441406 2192.710938 1282.570312 2194.539062 1282.570312 C 2202.789062 1282.570312 2209.78125 1279.820312 2215.5 1274.339844 C 2221.371094 1268.699219 2224.308594 1262.078125 2224.308594 1254.460938 C 2224.308594 1247.609375 2222.320312 1240.070312 2218.351562 1231.839844 C 2214.539062 1223.609375 2209.070312 1215.621094 2201.921875 1207.851562 C 2192.871094 1197.640625 2182.230469 1190.019531 2170.011719 1185 C 2157.949219 1179.96875 2143.421875 1176.621094 2126.429688 1174.941406 L 2126.429688 1150.261719 C 2126.429688 1137.769531 2121.351562 1131.53125 2111.191406 1131.53125 C 2109.398438 1131.53125 2107.769531 1131.738281 2106.300781 1132.148438 C 2104.789062 1131.738281 2103.121094 1131.53125 2101.269531 1131.53125 Z M 2086.269531 1222.769531 L 2086.269531 1303.191406 C 2076.871094 1299.210938 2069.539062 1294.929688 2064.28125 1290.339844 C 2057.289062 1284.089844 2053.800781 1274.949219 2053.800781 1262.921875 C 2053.800781 1250.269531 2057.53125 1240.828125 2064.988281 1234.578125 C 2070.480469 1229.980469 2077.589844 1226.050781 2086.269531 1222.769531 Z M 2126.429688 1378.25 C 2138.089844 1382.589844 2147.269531 1387.628906 2153.890625 1393.390625 C 2162.46875 1400.550781 2166.75 1410.761719 2166.75 1424.011719 C 2166.75 1436.351562 2162.390625 1447.171875 2153.660156 1456.460938 C 2146.820312 1463.730469 2137.738281 1469.089844 2126.429688 1472.53125 Z M 2126.429688 1378.25 "/>
<path fill-rule="nonzero" fill="rgb(100%, 100%, 100%)" fill-opacity="1" d="M 2101.269531 1083.058594 C 2085.929688 1083.058594 2063.980469 1090.910156 2051.828125 1106.460938 C 2043.898438 1116.609375 2041.011719 1126.589844 2039.5 1136.070312 C 2016.230469 1142.96875 1994.449219 1152.679688 1977.230469 1169.210938 C 1977.171875 1169.269531 1977.121094 1169.320312 1977.058594 1169.371094 C 1950.691406 1194.910156 1936.351562 1231.769531 1936.351562 1268.640625 C 1936.351562 1295.890625 1942.660156 1323.089844 1958.339844 1345.648438 C 1961.371094 1350.019531 1965.5 1353.441406 1969.011719 1357.421875 C 1962.359375 1360.921875 1955.5 1364.28125 1950.339844 1369.371094 C 1950.328125 1369.371094 1950.320312 1369.371094 1950.320312 1369.371094 C 1937.179688 1382.320312 1927.050781 1403.25 1927.050781 1423.539062 C 1927.050781 1440.699219 1931 1457.558594 1937.648438 1473.058594 C 1937.679688 1473.140625 1937.71875 1473.210938 1937.75 1473.289062 C 1944.871094 1489.640625 1955.261719 1504.238281 1967.71875 1517.21875 C 1967.890625 1517.410156 1968.070312 1517.601562 1968.261719 1517.789062 C 1982.160156 1531.808594 1998.808594 1542.929688 2017.089844 1551.398438 C 2017.148438 1551.429688 2017.210938 1551.460938 2017.269531 1551.488281 C 2023.589844 1554.378906 2031.128906 1554.710938 2037.789062 1556.871094 L 2037.789062 1561.789062 C 2037.789062 1573.921875 2038.378906 1587.789062 2049.199219 1604.109375 C 2049.488281 1604.539062 2049.78125 1604.960938 2050.078125 1605.390625 C 2063.070312 1623.660156 2086.558594 1630.828125 2101.75 1630.828125 C 2103.320312 1630.828125 2104.980469 1630.351562 2106.601562 1630.238281 C 2108.28125 1630.351562 2110.019531 1630.828125 2111.660156 1630.828125 C 2120.128906 1630.828125 2130.449219 1629.609375 2141.578125 1623.851562 C 2152.53125 1618.171875 2162.851562 1606.988281 2167.851562 1595.628906 C 2174.429688 1580.96875 2174.78125 1570.269531 2174.789062 1559.089844 C 2186.929688 1555.308594 2198.71875 1550.640625 2209.621094 1544.300781 C 2232.578125 1530.960938 2252.101562 1512.03125 2264.960938 1488.988281 C 2277.339844 1466.929688 2283.96875 1441.75 2283.96875 1416.46875 C 2283.96875 1396.460938 2279.878906 1376.410156 2271.46875 1358.21875 C 2264.089844 1341.839844 2253.019531 1327.28125 2239.820312 1315.101562 C 2242.808594 1313.011719 2246.488281 1311.78125 2249.058594 1309.320312 C 2262.800781 1296.140625 2272.769531 1274.539062 2272.769531 1254.460938 C 2272.769531 1238.359375 2268.261719 1223.980469 2262.070312 1211.078125 C 2255.929688 1197.941406 2247.621094 1186.058594 2237.839844 1175.359375 C 2224.308594 1160.210938 2207.378906 1148 2188.578125 1140.238281 C 2183.828125 1138.261719 2178.148438 1138.148438 2173.199219 1136.621094 C 2171.691406 1126.648438 2168.75 1116.089844 2160.230469 1105.609375 C 2147.710938 1090.21875 2126.199219 1083.058594 2111.191406 1083.058594 C 2109.640625 1083.058594 2107.890625 1083.609375 2106.289062 1083.71875 C 2104.660156 1083.609375 2102.839844 1083.058594 2101.269531 1083.058594 Z M 2195.109375 1234.148438 C 2195.308594 1234.160156 2195.480469 1234.148438 2195.679688 1234.179688 C 2195.5 1234.179688 2195.320312 1234.179688 2195.140625 1234.179688 C 2195.128906 1234.171875 2195.109375 1234.160156 2195.109375 1234.148438 Z M 2200.699219 1244.710938 C 2200.691406 1244.679688 2201 1245.128906 2200.980469 1245.070312 L 2201.101562 1245.488281 C 2201.03125 1245.210938 2200.78125 1244.988281 2200.699219 1244.710938 Z M 2236.199219 1311.238281 L 2236.75 1311.710938 C 2236.679688 1311.660156 2236.601562 1311.628906 2236.53125 1311.570312 C 2236.410156 1311.46875 2236.320312 1311.339844 2236.199219 1311.238281 Z M 2184.960938 1356.191406 L 2185.691406 1356.800781 C 2185.539062 1356.671875 2185.351562 1356.648438 2185.199219 1356.519531 C 2185.089844 1356.429688 2185.058594 1356.269531 2184.960938 1356.191406 Z M 2184.960938 1356.191406 "/>
<path fill-rule="nonzero" fill="rgb(51.756287%, 0%, 83.984375%)" fill-opacity="1" d="M 1383.601562 570.261719 C 1315.019531 570.261719 1259.808594 622.730469 1259.808594 687.898438 L 1259.808594 2290.632812 C 1259.808594 2355.804688 1315.019531 2408.273438 1383.601562 2408.273438 L 2138.949219 2408.273438 C 2207.539062 2408.273438 2262.75 2355.804688 2262.75 2290.632812 L 2262.75 1247.039062 C 2269.769531 1247.039062 2275.421875 1241.390625 2275.421875 1234.371094 L 2275.421875 1036.820312 C 2275.421875 1029.800781 2269.769531 1024.148438 2262.75 1024.148438 L 2262.75 687.898438 C 2262.75 622.730469 2207.539062 570.261719 2138.949219 570.261719 Z M 1383.601562 570.261719 "/>
<path fill-rule="nonzero" fill="rgb(30.200195%, 30.200195%, 30.200195%)" fill-opacity="1" d="M 1383.609375 562.25 C 1310.941406 562.25 1251.78125 618.199219 1251.78125 687.898438 L 1251.78125 2290.640625 C 1251.78125 2360.339844 1310.941406 2416.296875 1383.609375 2416.296875 L 2138.949219 2416.296875 C 2211.621094 2416.296875 2270.75 2360.339844 2270.75 2290.640625 L 2270.75 1251.710938 C 2277.789062 1248.390625 2283.441406 1242.578125 2283.441406 1234.371094 L 2283.441406 1036.808594 C 2283.441406 1028.589844 2277.789062 1022.808594 2270.75 1019.480469 L 2270.75 687.898438 C 2270.75 618.199219 2211.621094 562.25 2138.949219 562.25 Z M 1383.609375 578.269531 L 2138.949219 578.269531 C 2203.449219 578.269531 2254.730469 627.25 2254.730469 687.898438 L 2254.730469 1024.148438 C 2254.730469 1026.28125 2255.570312 1028.320312 2257.078125 1029.820312 C 2258.589844 1031.328125 2260.628906 1032.171875 2262.75 1032.171875 C 2265.46875 1032.171875 2267.390625 1034.101562 2267.390625 1036.808594 L 2267.390625 1234.371094 C 2267.390625 1237.078125 2265.46875 1239.03125 2262.75 1239.03125 C 2260.628906 1239.03125 2258.589844 1239.871094 2257.078125 1241.378906 C 2255.570312 1242.878906 2254.730469 1244.929688 2254.730469 1247.058594 L 2254.730469 2290.640625 C 2254.730469 2351.285156 2203.449219 2400.25 2138.949219 2400.25 L 1383.609375 2400.25 C 1319.121094 2400.25 1267.828125 2351.285156 1267.828125 2290.640625 L 1267.828125 687.898438 C 1267.828125 627.25 1319.121094 578.269531 1383.609375 578.269531 Z M 1383.609375 578.269531 "/>
<path fill-rule="nonzero" fill="rgb(96.484375%, 100%, 39.988708%)" fill-opacity="1" d="M 1425.980469 637.011719 C 1365.089844 637.011719 1316.070312 685.660156 1316.070312 746.101562 L 1316.070312 2232.433594 C 1316.070312 2292.871094 1365.089844 2341.523438 1425.980469 2341.523438 L 2096.589844 2341.523438 C 2157.46875 2341.523438 2206.488281 2292.871094 2206.488281 2232.433594 L 2206.488281 746.101562 C 2206.488281 685.660156 2157.46875 637.011719 2096.589844 637.011719 L 2012.429688 637.011719 L 2009.121094 673.421875 C 2008.121094 684.421875 1989.429688 693.269531 1967.210938 693.269531 L 1555.351562 693.269531 C 1533.128906 693.269531 1514.441406 684.421875 1513.441406 673.421875 L 1510.140625 637.011719 Z M 1425.980469 637.011719 "/>
<path fill-rule="nonzero" fill="rgb(30.200195%, 30.200195%, 30.200195%)" fill-opacity="1" d="M 1425.980469 628.988281 C 1360.820312 628.988281 1308.058594 681.320312 1308.058594 746.101562 L 1308.058594 2232.441406 C 1308.058594 2297.214844 1360.820312 2349.550781 1425.980469 2349.550781 L 2096.578125 2349.550781 C 2161.738281 2349.550781 2214.5 2297.214844 2214.5 2232.441406 L 2214.5 746.101562 C 2214.5 681.320312 2161.738281 628.988281 2096.578125 628.988281 L 2012.421875 628.988281 C 2008.28125 628.988281 2004.820312 632.148438 2004.441406 636.28125 L 2001.128906 672.679688 C 2001.128906 672.691406 2001.128906 672.691406 2001.128906 672.699219 C 2001.019531 673.910156 1998.890625 677.289062 1992.679688 680.230469 C 1986.480469 683.171875 1977.261719 685.25 1967.21875 685.25 L 1555.339844 685.25 C 1545.300781 685.25 1536.078125 683.171875 1529.878906 680.230469 C 1523.679688 677.289062 1521.539062 673.910156 1521.429688 672.699219 L 1518.121094 636.28125 C 1517.738281 632.148438 1514.28125 628.988281 1510.140625 628.988281 Z M 1425.980469 645.03125 L 1502.828125 645.03125 L 1505.449219 674.148438 C 1506.339844 683.941406 1514.070312 690.480469 1523.019531 694.710938 C 1531.960938 698.949219 1543.171875 701.289062 1555.339844 701.289062 L 1967.21875 701.289062 C 1979.390625 701.289062 1990.601562 698.949219 1999.539062 694.710938 C 2008.488281 690.480469 2016.21875 683.941406 2017.109375 674.148438 L 2019.761719 645.03125 L 2096.578125 645.03125 C 2153.199219 645.03125 2198.46875 689.988281 2198.46875 746.101562 L 2198.46875 2232.441406 C 2198.46875 2288.546875 2153.199219 2333.503906 2096.578125 2333.503906 L 1425.980469 2333.503906 C 1369.359375 2333.503906 1324.089844 2288.546875 1324.089844 2232.441406 L 1324.089844 746.101562 C 1324.089844 689.988281 1369.359375 645.03125 1425.980469 645.03125 Z M 1425.980469 645.03125 "/>
<path fill-rule="nonzero" fill="rgb(98.826599%, 100%, 76.951599%)" fill-opacity="1" d="M 1554.96875 902.640625 L 1566.308594 913.980469 C 1578.5 926.179688 1578.5 945.820312 1566.308594 958.019531 L 1469.910156 1054.410156 C 1457.710938 1066.609375 1438.070312 1066.609375 1425.871094 1054.410156 L 1414.539062 1043.070312 C 1402.339844 1030.871094 1402.339844 1011.230469 1414.539062 999.03125 L 1510.921875 902.640625 C 1523.128906 890.441406 1542.769531 890.441406 1554.96875 902.640625 Z M 1554.96875 902.640625 "/>
<path fill-rule="nonzero" fill="rgb(98.826599%, 100%, 76.951599%)" fill-opacity="1" d="M 1668.449219 789.160156 L 1679.789062 800.488281 C 1691.988281 812.691406 1691.988281 832.339844 1679.789062 844.53125 L 1625.179688 899.148438 C 1612.980469 911.351562 1593.339844 911.351562 1581.140625 899.148438 L 1569.800781 887.808594 C 1557.601562 875.609375 1557.601562 855.96875 1569.800781 843.769531 L 1624.410156 789.160156 C 1636.609375 776.960938 1656.25 776.960938 1668.449219 789.160156 Z M 1668.449219 789.160156 "/>
<path fill-rule="nonzero" fill="rgb(98.4375%, 99.21875%, 99.609375%)" fill-opacity="1" d="M 1928.21875 2114.503906 L 1939.558594 2125.839844 C 1951.761719 2138.039062 1951.761719 2157.683594 1939.558594 2169.882812 L 1843.171875 2266.273438 C 1830.96875 2278.472656 1811.320312 2278.472656 1799.128906 2266.273438 L 1787.789062 2254.933594 C 1775.589844 2242.734375 1775.589844 2223.09375 1787.789062 2210.890625 L 1884.179688 2114.503906 C 1896.378906 2102.300781 1916.019531 2102.300781 1928.21875 2114.503906 Z M 1928.21875 2114.503906 "/>
<path fill-rule="nonzero" fill="rgb(98.4375%, 99.21875%, 99.609375%)" fill-opacity="1" d="M 2041.710938 2001.019531 L 2053.039062 2012.351562 C 2065.238281 2024.550781 2065.238281 2044.191406 2053.039062 2056.390625 L 1998.429688 2111.007812 C 1986.230469 2123.207031 1966.589844 2123.207031 1954.390625 2111.007812 L 1943.050781 2099.671875 C 1930.851562 2087.46875 1930.851562 2067.828125 1943.050781 2055.621094 L 1997.660156 2001.019531 C 2009.859375 1988.820312 2029.511719 1988.820312 2041.710938 2001.019531 Z M 2041.710938 2001.019531 "/>
<path fill-rule="nonzero" fill="rgb(98.826599%, 100%, 76.951599%)" fill-opacity="1" d="M 1928.21875 2114.503906 L 1939.558594 2125.839844 C 1951.761719 2138.039062 1951.761719 2157.683594 1939.558594 2169.882812 L 1843.171875 2266.273438 C 1830.96875 2278.472656 1811.320312 2278.472656 1799.128906 2266.273438 L 1787.789062 2254.933594 C 1775.589844 2242.734375 1775.589844 2223.09375 1787.789062 2210.890625 L 1884.179688 2114.503906 C 1896.378906 2102.300781 1916.019531 2102.300781 1928.21875 2114.503906 Z M 1928.21875 2114.503906 "/>
<path fill-rule="nonzero" fill="rgb(98.826599%, 100%, 76.951599%)" fill-opacity="1" d="M 2041.710938 2001.019531 L 2053.039062 2012.351562 C 2065.238281 2024.550781 2065.238281 2044.191406 2053.039062 2056.390625 L 1998.429688 2111.007812 C 1986.230469 2123.207031 1966.589844 2123.207031 1954.390625 2111.007812 L 1943.050781 2099.671875 C 1930.851562 2087.46875 1930.851562 2067.828125 1943.050781 2055.621094 L 1997.660156 2001.019531 C 2009.859375 1988.820312 2029.511719 1988.820312 2041.710938 2001.019531 Z M 2041.710938 2001.019531 "/>
<path fill-rule="nonzero" fill="rgb(30.200195%, 30.200195%, 30.200195%)" fill-opacity="1" d="M 1891.898438 1036.691406 C 1708.53125 1036.691406 1560.390625 1184.828125 1560.390625 1368.210938 C 1560.390625 1414.058594 1569.640625 1457.761719 1586.378906 1497.460938 C 1603.109375 1537.160156 1627.320312 1572.871094 1657.28125 1602.828125 C 1657.101562 1602.640625 1660.609375 1612.890625 1658.300781 1629.289062 C 1655.988281 1645.679688 1650.179688 1666.558594 1643.390625 1686.660156 C 1629.808594 1726.859375 1612.601562 1763.960938 1612.601562 1763.960938 C 1609.828125 1769.910156 1610.960938 1776.941406 1615.460938 1781.71875 C 1619.960938 1786.5 1626.921875 1788.050781 1633.019531 1785.640625 C 1633.019531 1785.640625 1688.109375 1763.941406 1748.550781 1742.28125 C 1778.769531 1731.449219 1810.320312 1720.648438 1836.761719 1712.621094 C 1863.191406 1704.601562 1886.300781 1699.699219 1891.898438 1699.699219 L 2303.390625 1699.699219 C 2486.769531 1699.699219 2634.890625 1551.589844 2634.890625 1368.210938 C 2634.890625 1184.828125 2486.769531 1036.691406 2303.390625 1036.691406 Z M 1891.898438 1068.761719 L 2303.390625 1068.761719 C 2469.558594 1068.761719 2602.839844 1202.039062 2602.839844 1368.210938 C 2602.839844 1534.378906 2469.558594 1667.660156 2303.390625 1667.660156 L 1891.898438 1667.660156 C 1875.660156 1667.660156 1854.730469 1673.660156 1827.429688 1681.949219 C 1800.128906 1690.238281 1768.238281 1701.171875 1737.730469 1712.109375 C 1694.609375 1727.558594 1675.359375 1735.269531 1655.410156 1742.988281 C 1661.890625 1727.851562 1665.589844 1721.121094 1673.761719 1696.929688 C 1680.898438 1675.78125 1687.238281 1653.648438 1690.039062 1633.761719 C 1692.839844 1613.878906 1694.398438 1594.589844 1679.960938 1580.160156 C 1652.890625 1553.089844 1631.019531 1520.851562 1615.910156 1485.011719 C 1600.808594 1449.179688 1592.460938 1409.75 1592.460938 1368.210938 C 1592.460938 1202.039062 1725.730469 1068.761719 1891.898438 1068.761719 Z M 1891.898438 1068.761719 "/>
<path fill-rule="nonzero" fill="rgb(100%, 52.929688%, 25.097656%)" fill-opacity="1" d="M 1891.898438 1052.730469 L 2303.390625 1052.730469 C 2478.160156 1052.730469 2618.859375 1193.429688 2618.859375 1368.210938 C 2618.859375 1542.980469 2478.160156 1683.679688 2303.390625 1683.679688 L 1891.898438 1683.679688 C 1848.210938 1683.679688 1627.140625 1770.71875 1627.140625 1770.71875 C 1627.140625 1770.71875 1697.128906 1620 1668.621094 1591.480469 C 1640.109375 1562.96875 1617.058594 1529 1601.140625 1491.230469 C 1585.21875 1453.460938 1576.429688 1411.898438 1576.429688 1368.210938 C 1576.429688 1193.429688 1717.128906 1052.730469 1891.898438 1052.730469 Z M 1891.898438 1052.730469 "/>
<path fill-rule="nonzero" fill="rgb(100%, 76.951599%, 63.476562%)" fill-opacity="1" d="M 1996.800781 1118.089844 C 1996.800781 1126.390625 1992.960938 1133.078125 1988.191406 1133.078125 L 1856.648438 1133.078125 C 1851.878906 1133.078125 1848.039062 1126.390625 1848.039062 1118.089844 C 1848.039062 1109.78125 1851.878906 1103.101562 1856.648438 1103.101562 L 1988.191406 1103.101562 C 1992.960938 1103.101562 1996.800781 1109.78125 1996.800781 1118.089844 Z M 1996.800781 1118.089844 "/>
<path fill-rule="nonzero" fill="rgb(100%, 76.951599%, 63.476562%)" fill-opacity="1" d="M 1797.929688 1118.089844 C 1797.929688 1126.390625 1801.769531 1133.078125 1806.550781 1133.078125 L 1830.820312 1133.078125 C 1835.589844 1133.078125 1839.429688 1126.390625 1839.429688 1118.089844 C 1839.429688 1109.78125 1835.589844 1103.101562 1830.820312 1103.101562 L 1806.550781 1103.101562 C 1801.769531 1103.101562 1797.929688 1109.78125 1797.929688 1118.089844 Z M 1797.929688 1118.089844 "/>
<path fill-rule="nonzero" fill="rgb(100%, 76.951599%, 63.476562%)" fill-opacity="1" d="M 2006.828125 1624.738281 C 2006.828125 1633.050781 2014.839844 1639.730469 2024.789062 1639.730469 L 2299.078125 1639.730469 C 2309.03125 1639.730469 2317.039062 1633.050781 2317.039062 1624.738281 C 2317.039062 1616.441406 2309.03125 1609.75 2299.078125 1609.75 L 2024.789062 1609.75 C 2014.839844 1609.75 2006.828125 1616.441406 2006.828125 1624.738281 Z M 2006.828125 1624.738281 "/>
<path fill-rule="nonzero" fill="rgb(100%, 76.951599%, 63.476562%)" fill-opacity="1" d="M 2421.53125 1624.738281 C 2421.53125 1633.050781 2413.519531 1639.730469 2403.570312 1639.730469 L 2352.960938 1639.730469 C 2343.011719 1639.730469 2335 1633.050781 2335 1624.738281 C 2335 1616.441406 2343.011719 1609.75 2352.960938 1609.75 L 2403.570312 1609.75 C 2413.519531 1609.75 2421.53125 1616.441406 2421.53125 1624.738281 Z M 2421.53125 1624.738281 "/>
<path fill-rule="nonzero" fill="rgb(97.65625%, 97.65625%, 97.65625%)" fill-opacity="1" d="M 2101.269531 1131.53125 C 2091.269531 1131.53125 2086.269531 1137.921875 2086.269531 1150.71875 L 2086.269531 1174.941406 C 2053.398438 1177.679688 2028.238281 1187.429688 2010.769531 1204.191406 C 1993.46875 1220.941406 1984.820312 1242.429688 1984.820312 1268.628906 C 1984.820312 1288.738281 1989.261719 1305.191406 1998.148438 1317.980469 C 2007.039062 1330.78125 2018.628906 1340.679688 2032.921875 1347.691406 C 2047.210938 1354.550781 2064.988281 1360.789062 2086.269531 1366.429688 L 2086.269531 1469.351562 C 2080.089844 1466.839844 2074.808594 1463.769531 2070.46875 1460.121094 C 2064.121094 1454.628906 2059.359375 1448.609375 2056.179688 1442.058594 C 2053 1435.359375 2049.269531 1425.769531 2044.988281 1413.269531 C 2043.078125 1407.480469 2039.671875 1402.988281 2034.75 1399.789062 C 2029.820312 1396.589844 2023.789062 1394.988281 2016.648438 1394.988281 C 2015.019531 1394.988281 2013.429688 1395.089844 2011.890625 1395.300781 C 2010.238281 1395.089844 2008.519531 1394.988281 2006.730469 1394.988281 C 1997.839844 1394.988281 1990.378906 1397.960938 1984.339844 1403.898438 C 1978.46875 1409.691406 1975.53125 1416.238281 1975.53125 1423.558594 C 1975.53125 1433.460938 1977.75 1443.589844 1982.199219 1453.941406 C 1986.640625 1464.148438 1993.46875 1474.058594 2002.679688 1483.648438 C 2012.050781 1493.101562 2023.628906 1501.019531 2037.441406 1507.421875 C 2051.421875 1513.820312 2067.691406 1518 2086.269531 1519.980469 L 2086.269531 1561.78125 C 2086.269531 1568.789062 2087.378906 1573.96875 2089.601562 1577.320312 C 2091.980469 1580.671875 2096.03125 1582.339844 2101.738281 1582.339844 C 2103.570312 1582.339844 2105.171875 1582.140625 2106.609375 1581.789062 C 2108.121094 1582.148438 2109.800781 1582.339844 2111.671875 1582.339844 C 2117.859375 1582.339844 2121.828125 1580.289062 2123.570312 1576.179688 C 2125.480469 1572.058594 2126.429688 1565.511719 2126.429688 1556.519531 L 2126.429688 1519.53125 C 2149.128906 1517.699219 2168.738281 1511.980469 2185.25 1502.390625 C 2201.761719 1492.789062 2214.21875 1480.449219 2222.640625 1465.371094 C 2231.210938 1450.140625 2235.5 1433.839844 2235.5 1416.46875 C 2235.5 1402.609375 2232.800781 1389.890625 2227.398438 1378.308594 C 2222.160156 1366.578125 2214.621094 1356.53125 2204.78125 1348.148438 C 2195.570312 1340.070312 2185.089844 1333.910156 2173.339844 1329.640625 C 2161.75 1325.371094 2146.121094 1320.648438 2126.429688 1315.46875 L 2126.429688 1224.339844 C 2140.738281 1231.351562 2150.058594 1242.679688 2154.371094 1258.351562 C 2158.980469 1274.488281 2169.058594 1282.570312 2184.621094 1282.570312 C 2186.230469 1282.570312 2187.769531 1282.429688 2189.289062 1282.21875 C 2190.96875 1282.441406 2192.710938 1282.570312 2194.539062 1282.570312 C 2202.789062 1282.570312 2209.78125 1279.820312 2215.5 1274.339844 C 2221.371094 1268.699219 2224.308594 1262.078125 2224.308594 1254.460938 C 2224.308594 1247.609375 2222.320312 1240.070312 2218.351562 1231.839844 C 2214.539062 1223.609375 2209.070312 1215.621094 2201.921875 1207.851562 C 2192.871094 1197.640625 2182.230469 1190.019531 2170.011719 1185 C 2157.949219 1179.96875 2143.421875 1176.621094 2126.429688 1174.941406 L 2126.429688 1150.261719 C 2126.429688 1137.769531 2121.351562 1131.53125 2111.191406 1131.53125 C 2109.398438 1131.53125 2107.769531 1131.738281 2106.300781 1132.148438 C 2104.789062 1131.738281 2103.121094 1131.53125 2101.269531 1131.53125 Z M 2086.269531 1222.769531 L 2086.269531 1303.191406 C 2076.871094 1299.210938 2069.539062 1294.929688 2064.28125 1290.339844 C 2057.289062 1284.089844 2053.800781 1274.949219 2053.800781 1262.921875 C 2053.800781 1250.269531 2057.53125 1240.828125 2064.988281 1234.578125 C 2070.480469 1229.980469 2077.589844 1226.050781 2086.269531 1222.769531 Z M 2126.429688 1378.25 C 2138.089844 1382.589844 2147.269531 1387.628906 2153.890625 1393.390625 C 2162.46875 1400.550781 2166.75 1410.761719 2166.75 1424.011719 C 2166.75 1436.351562 2162.390625 1447.171875 2153.660156 1456.460938 C 2146.820312 1463.730469 2137.738281 1469.089844 2126.429688 1472.53125 Z M 2126.429688 1378.25 "/>
<path fill-rule="nonzero" fill="rgb(30.200195%, 30.200195%, 30.200195%)" fill-opacity="1" d="M 2101.269531 1126.730469 C 2095.238281 1126.730469 2089.679688 1128.929688 2086.21875 1133.351562 C 2082.761719 1137.78125 2081.460938 1143.699219 2081.460938 1150.71875 L 2081.460938 1171.101562 C 2050.179688 1174.441406 2025 1183.871094 2007.449219 1200.710938 C 2007.441406 1200.71875 2007.429688 1200.730469 2007.429688 1200.730469 C 1989.21875 1218.359375 1980.019531 1241.378906 1980.019531 1268.640625 C 1980.019531 1289.460938 1984.628906 1306.960938 1994.191406 1320.730469 C 2003.539062 1334.179688 2015.839844 1344.679688 2030.808594 1352.019531 C 2030.820312 1352.019531 2030.820312 1352.019531 2030.828125 1352.019531 C 2044.53125 1358.589844 2061.820312 1364.429688 2081.460938 1369.820312 L 2081.460938 1461.039062 C 2078.789062 1459.53125 2075.710938 1458.238281 2073.601562 1456.46875 L 2073.578125 1456.441406 C 2067.671875 1451.328125 2063.390625 1445.871094 2060.539062 1439.988281 L 2060.511719 1439.96875 C 2057.480469 1433.570312 2053.789062 1424.109375 2049.558594 1411.761719 L 2049.558594 1411.730469 C 2047.351562 1405.039062 2043.160156 1399.519531 2037.371094 1395.761719 C 2031.550781 1391.980469 2024.519531 1390.171875 2016.660156 1390.171875 C 2015.019531 1390.171875 2013.421875 1390.300781 2011.851562 1390.480469 C 2010.179688 1390.300781 2008.480469 1390.171875 2006.71875 1390.171875 C 1996.75 1390.171875 1987.839844 1393.699219 1980.96875 1400.46875 C 1974.371094 1406.960938 1970.71875 1414.941406 1970.71875 1423.539062 C 1970.71875 1434.160156 1973.109375 1444.980469 1977.769531 1455.851562 C 1977.78125 1455.859375 1977.789062 1455.871094 1977.789062 1455.871094 C 1982.5 1466.691406 1989.679688 1477.039062 1999.21875 1486.96875 C 1999.230469 1487 1999.25 1487.019531 1999.261719 1487.050781 C 2009.078125 1496.941406 2021.171875 1505.179688 2035.429688 1511.78125 C 2035.429688 1511.78125 2035.441406 1511.78125 2035.449219 1511.78125 C 2048.738281 1517.859375 2064.441406 1521.449219 2081.460938 1523.660156 L 2081.460938 1561.789062 C 2081.460938 1569.308594 2082.53125 1575.328125 2085.601562 1579.960938 C 2085.628906 1580.011719 2085.648438 1580.058594 2085.679688 1580.109375 C 2089.109375 1584.941406 2095.089844 1587.160156 2101.75 1587.160156 C 2103.488281 1587.160156 2105.039062 1586.890625 2106.570312 1586.589844 C 2108.191406 1586.898438 2109.839844 1587.160156 2111.660156 1587.160156 C 2115.289062 1587.160156 2118.621094 1586.578125 2121.511719 1585.078125 C 2124.390625 1583.589844 2126.699219 1581.058594 2127.96875 1578.070312 C 2130.410156 1572.761719 2131.230469 1565.808594 2131.230469 1556.539062 L 2131.230469 1523.539062 C 2152.570312 1521.289062 2171.601562 1515.878906 2187.660156 1506.550781 C 2204.808594 1496.578125 2217.980469 1483.601562 2226.828125 1467.730469 L 2226.828125 1467.710938 C 2235.78125 1451.800781 2240.320312 1434.621094 2240.320312 1416.46875 C 2240.320312 1401.980469 2237.460938 1388.519531 2231.75 1376.28125 C 2226.238281 1363.96875 2218.261719 1353.339844 2207.949219 1344.539062 L 2207.921875 1344.519531 C 2198.269531 1336.058594 2187.269531 1329.570312 2175 1325.109375 L 2175 1325.128906 C 2164.070312 1321.109375 2148.960938 1316.648438 2131.230469 1311.898438 L 2131.230469 1233.988281 C 2139.96875 1240.289062 2146.601562 1248.191406 2149.738281 1259.621094 C 2149.738281 1259.640625 2149.738281 1259.648438 2149.738281 1259.671875 C 2152.238281 1268.429688 2156.398438 1275.460938 2162.378906 1280.261719 C 2168.371094 1285.050781 2176 1287.378906 2184.609375 1287.378906 C 2186.269531 1287.378906 2187.839844 1287.210938 2189.339844 1287.03125 C 2191.019531 1287.230469 2192.738281 1287.378906 2194.550781 1287.378906 C 2203.871094 1287.378906 2212.28125 1284.109375 2218.828125 1277.820312 C 2225.480469 1271.429688 2229.128906 1263.308594 2229.128906 1254.460938 C 2229.128906 1246.699219 2226.890625 1238.488281 2222.710938 1229.820312 L 2222.710938 1229.800781 C 2218.671875 1221.078125 2212.890625 1212.699219 2205.480469 1204.640625 C 2195.988281 1193.941406 2184.75 1185.839844 2171.878906 1180.539062 L 2171.851562 1180.539062 C 2160.441406 1175.789062 2146.488281 1172.988281 2131.230469 1171.148438 L 2131.230469 1150.269531 C 2131.230469 1143.371094 2129.890625 1137.53125 2126.359375 1133.179688 C 2122.828125 1128.839844 2117.25 1126.71875 2111.191406 1126.71875 C 2109.488281 1126.71875 2107.921875 1127.039062 2106.359375 1127.359375 C 2104.71875 1127.011719 2103.058594 1126.71875 2101.269531 1126.71875 Z M 2101.269531 1136.339844 C 2102.75 1136.339844 2103.988281 1136.5 2105.03125 1136.789062 C 2105.871094 1137.019531 2106.75 1137.019531 2107.589844 1136.789062 C 2108.589844 1136.5 2109.78125 1136.339844 2111.191406 1136.339844 C 2115.28125 1136.339844 2117.328125 1137.339844 2118.878906 1139.25 C 2120.429688 1141.148438 2121.628906 1144.679688 2121.628906 1150.269531 L 2121.628906 1174.941406 C 2121.628906 1177.410156 2123.5 1179.46875 2125.960938 1179.71875 C 2142.589844 1181.359375 2156.648438 1184.648438 2168.160156 1189.441406 C 2168.160156 1189.441406 2168.171875 1189.441406 2168.179688 1189.441406 C 2179.730469 1194.191406 2189.730469 1201.339844 2198.328125 1211.03125 C 2198.351562 1211.058594 2198.359375 1211.078125 2198.378906 1211.101562 C 2205.238281 1218.558594 2210.410156 1226.160156 2213.980469 1233.871094 C 2213.988281 1233.890625 2214.011719 1233.921875 2214.03125 1233.941406 C 2217.769531 1241.699219 2219.488281 1248.539062 2219.488281 1254.460938 C 2219.488281 1260.839844 2217.25 1265.980469 2212.160156 1270.871094 C 2207.28125 1275.550781 2201.738281 1277.75 2194.550781 1277.75 C 2192.929688 1277.75 2191.410156 1277.660156 2189.929688 1277.46875 C 2189.5 1277.410156 2189.058594 1277.410156 2188.628906 1277.46875 C 2187.28125 1277.660156 2185.949219 1277.75 2184.609375 1277.75 C 2177.660156 1277.75 2172.488281 1276.039062 2168.390625 1272.761719 C 2164.308594 1269.488281 2161.128906 1264.421875 2159.019531 1257.070312 L 2159 1257.019531 C 2154.371094 1240.238281 2143.929688 1227.558594 2128.539062 1220.03125 C 2125.339844 1218.480469 2121.621094 1220.808594 2121.628906 1224.359375 L 2121.628906 1315.480469 C 2121.628906 1317.660156 2123.101562 1319.558594 2125.199219 1320.121094 C 2144.800781 1325.269531 2160.328125 1329.980469 2171.679688 1334.148438 C 2171.691406 1334.148438 2171.699219 1334.148438 2171.710938 1334.148438 C 2182.921875 1338.230469 2192.839844 1344.078125 2201.601562 1351.761719 C 2201.628906 1351.78125 2201.648438 1351.789062 2201.671875 1351.808594 C 2210.988281 1359.738281 2218.070312 1369.191406 2223.019531 1380.28125 C 2223.03125 1380.308594 2223.039062 1380.328125 2223.050781 1380.359375 C 2228.128906 1391.269531 2230.691406 1403.230469 2230.691406 1416.46875 C 2230.691406 1433.050781 2226.640625 1448.46875 2218.449219 1463.03125 C 2210.480469 1477.320312 2198.710938 1489.019531 2182.839844 1498.25 C 2167.039062 1507.429688 2148.179688 1512.960938 2126.058594 1514.738281 C 2123.558594 1514.941406 2121.640625 1517.019531 2121.628906 1519.519531 L 2121.628906 1556.539062 C 2121.628906 1565.191406 2120.558594 1571.25 2119.21875 1574.148438 C 2119.191406 1574.191406 2119.160156 1574.238281 2119.140625 1574.289062 C 2118.671875 1575.410156 2118.160156 1575.980469 2117.078125 1576.539062 C 2116.011719 1577.101562 2114.230469 1577.53125 2111.660156 1577.53125 C 2110.128906 1577.53125 2108.859375 1577.371094 2107.730469 1577.109375 C 2106.980469 1576.929688 2106.210938 1576.941406 2105.460938 1577.128906 C 2104.429688 1577.390625 2103.21875 1577.53125 2101.75 1577.53125 C 2097 1577.53125 2094.910156 1576.398438 2093.578125 1574.550781 C 2092.230469 1572.460938 2091.070312 1568.230469 2091.070312 1561.789062 L 2091.070312 1520 C 2091.070312 1517.539062 2089.230469 1515.480469 2086.789062 1515.210938 C 2068.640625 1513.28125 2052.878906 1509.179688 2039.480469 1503.050781 L 2039.449219 1503.050781 C 2026.109375 1496.871094 2015.058594 1489.300781 2006.148438 1480.328125 L 2006.128906 1480.308594 C 2006.121094 1480.300781 2006.109375 1480.289062 2006.101562 1480.28125 C 1997.25 1471.039062 1990.800781 1461.609375 1986.628906 1452.039062 C 1982.398438 1442.191406 1980.351562 1432.730469 1980.351562 1423.550781 C 1980.351562 1417.519531 1982.558594 1412.410156 1987.710938 1407.339844 C 1992.910156 1402.21875 1998.898438 1399.808594 2006.71875 1399.808594 C 2008.328125 1399.808594 2009.859375 1399.890625 2011.308594 1400.070312 C 2011.710938 1400.121094 2012.121094 1400.121094 2012.519531 1400.070312 C 2013.839844 1399.890625 2015.230469 1399.808594 2016.660156 1399.808594 C 2023.089844 1399.808594 2028.109375 1401.210938 2032.140625 1403.828125 C 2036.179688 1406.460938 2038.820312 1409.921875 2040.421875 1414.789062 C 2040.429688 1414.808594 2040.441406 1414.820312 2040.441406 1414.839844 C 2044.769531 1427.429688 2048.519531 1437.121094 2051.828125 1444.109375 C 2051.839844 1444.128906 2051.851562 1444.148438 2051.859375 1444.160156 C 2055.351562 1451.371094 2060.570312 1457.910156 2067.328125 1463.761719 C 2067.351562 1463.769531 2067.359375 1463.789062 2067.378906 1463.808594 C 2072.179688 1467.851562 2077.910156 1471.128906 2084.46875 1473.789062 C 2087.628906 1475.058594 2091.058594 1472.75 2091.070312 1469.339844 L 2091.070312 1366.441406 C 2091.078125 1364.25 2089.609375 1362.339844 2087.5 1361.769531 C 2066.449219 1356.199219 2048.960938 1350.050781 2035.050781 1343.378906 L 2035 1343.359375 C 2021.421875 1336.691406 2010.53125 1327.371094 2002.109375 1315.238281 C 1993.890625 1303.410156 1989.628906 1288.039062 1989.628906 1268.640625 C 1989.628906 1243.5 1997.71875 1223.539062 2014.128906 1207.648438 C 2030.601562 1191.859375 2054.558594 1182.421875 2086.671875 1179.738281 C 2089.160156 1179.53125 2091.078125 1177.441406 2091.070312 1174.941406 L 2091.070312 1150.730469 C 2091.070312 1144.960938 2092.269531 1141.269531 2093.820312 1139.300781 C 2095.359375 1137.320312 2097.300781 1136.339844 2101.269531 1136.339844 Z M 2084.558594 1218.269531 C 2075.5 1221.691406 2067.929688 1225.851562 2061.910156 1230.890625 C 2053.21875 1238.160156 2048.988281 1249.320312 2048.988281 1262.910156 C 2048.988281 1275.871094 2052.949219 1286.648438 2061.078125 1293.910156 C 2061.089844 1293.929688 2061.101562 1293.941406 2061.109375 1293.960938 C 2066.910156 1299.03125 2074.679688 1303.5 2084.390625 1307.621094 C 2087.558594 1308.949219 2091.058594 1306.628906 2091.070312 1303.191406 L 2091.070312 1222.769531 C 2091.070312 1219.410156 2087.710938 1217.089844 2084.558594 1218.269531 Z M 2081.460938 1230.859375 L 2081.460938 1294.890625 C 2076.269531 1292.191406 2070.660156 1289.519531 2067.46875 1286.738281 L 2067.449219 1286.71875 C 2061.621094 1281.5 2058.601562 1274 2058.601562 1262.910156 C 2058.601562 1251.210938 2061.851562 1243.488281 2068.089844 1238.269531 C 2071.429688 1235.480469 2076.609375 1233.210938 2081.460938 1230.859375 Z M 2128.109375 1373.75 C 2124.96875 1372.578125 2121.628906 1374.898438 2121.628906 1378.238281 L 2121.628906 1472.539062 C 2121.628906 1475.761719 2124.738281 1478.058594 2127.820312 1477.128906 C 2139.78125 1473.480469 2149.691406 1467.71875 2157.171875 1459.761719 C 2166.628906 1449.691406 2171.558594 1437.488281 2171.558594 1424.019531 C 2171.558594 1409.769531 2166.699219 1397.859375 2157.058594 1389.769531 L 2157.03125 1389.75 C 2149.789062 1383.460938 2140.121094 1378.21875 2128.109375 1373.75 Z M 2131.230469 1386.320312 C 2138.730469 1389.691406 2146.21875 1393.089844 2150.730469 1397.011719 C 2150.761719 1397.039062 2150.789062 1397.058594 2150.808594 1397.089844 C 2158.261719 1403.308594 2161.960938 1411.800781 2161.960938 1424.019531 C 2161.960938 1435.21875 2158.148438 1444.660156 2150.140625 1453.179688 C 2145.488281 1458.128906 2138.390625 1461.210938 2131.230469 1464.28125 Z M 2131.230469 1386.320312 "/>
</svg>
