<?xml version="1.0" encoding="UTF-8"?>
<svg version="1.1" xmlns="http://www.w3.org/2000/svg" width="100" height="100">
<path d="M0 0 C1.24072266 -0.01224609 2.48144531 -0.02449219 3.75976562 -0.03710938 C5.54737305 -0.04000977 5.54737305 -0.04000977 7.37109375 -0.04296875 C8.46220459 -0.04707764 9.55331543 -0.05118652 10.67749023 -0.05541992 C13.5735086 0.18842693 15.17098162 0.57333427 17.5625 2.1875 C19.82931494 5.58772241 19.81898076 6.79762708 19.8371582 10.78881836 C19.85145622 12.51091774 19.85145622 12.51091774 19.86604309 14.26780701 C19.86513168 15.50845413 19.86422028 16.74910126 19.86328125 18.02734375 C19.86756638 19.30098282 19.8718515 20.57462189 19.87626648 21.88685608 C19.8820147 24.58283242 19.88343958 27.27842651 19.87817383 29.97436523 C19.8723805 33.42566142 19.88930731 36.87642071 19.9125185 40.32762814 C19.9308113 43.6233627 19.92707025 46.91906755 19.92578125 50.21484375 C19.934991 51.45346664 19.94420074 52.69208954 19.95368958 53.96824646 C19.94746078 55.11946487 19.94123199 56.27068329 19.93481445 57.45678711 C19.93544388 58.46921982 19.9360733 59.48165253 19.9367218 60.52476501 C19.50179603 63.6194326 18.7683433 64.99370634 16.5625 67.1875 C13.95327198 67.60645673 11.76769253 67.77249095 9.15625 67.75390625 C8.43514038 67.76010483 7.71403076 67.76630341 6.97106934 67.77268982 C5.44801177 67.77978679 3.92487662 67.7766159 2.40185547 67.76391602 C0.06983973 67.75004366 -2.25816691 67.78411807 -4.58984375 67.82226562 C-6.07031348 67.8232168 -7.55078824 67.82135808 -9.03125 67.81640625 C-9.7281897 67.82966446 -10.42512939 67.84292267 -11.14318848 67.85658264 C-13.11523438 67.81860352 -13.11523438 67.81860352 -16.4375 67.1875 C-18.83887751 64.33948874 -19.79900876 61.89438449 -19.94921875 58.19921875 C-20.00239258 57.14057617 -20.00239258 57.14057617 -20.05664062 56.06054688 C-20.07919922 55.33931641 -20.10175781 54.61808594 -20.125 53.875 C-20.15916016 53.13443359 -20.19332031 52.39386719 -20.22851562 51.63085938 C-20.31043554 49.81691836 -20.37565822 48.00223647 -20.4375 46.1875 C-21.9225 46.6825 -21.9225 46.6825 -23.4375 47.1875 C-23.4375 46.5275 -23.4375 45.8675 -23.4375 45.1875 C-24.0975 45.1875 -24.7575 45.1875 -25.4375 45.1875 C-25.4375 43.5375 -25.4375 41.8875 -25.4375 40.1875 C-26.0975 40.1875 -26.7575 40.1875 -27.4375 40.1875 C-28.613125 41.4559375 -28.613125 41.4559375 -29.8125 42.75 C-30.67875 43.554375 -31.545 44.35875 -32.4375 45.1875 C-34.75 45 -34.75 45 -36.4375 44.1875 C-36.39625 43.300625 -36.355 42.41375 -36.3125 41.5 C-36.28839781 35.6672701 -37.47181022 29.92128308 -38.4375 24.1875 C-37.1175 23.8575 -35.7975 23.5275 -34.4375 23.1875 C-33.7775 24.1775 -33.1175 25.1675 -32.4375 26.1875 C-32.581875 26.744375 -32.72625 27.30125 -32.875 27.875 C-33.74060186 31.43358542 -32.9785862 34.58025865 -32.4375 38.1875 C-31.695 37.383125 -30.9525 36.57875 -30.1875 35.75 C-27.68445171 33.41761409 -26.7194045 32.55215606 -23.4375 32.1875 C-23.1075 34.4975 -22.7775 36.8075 -22.4375 39.1875 C-21.4475 38.6925 -21.4475 38.6925 -20.4375 38.1875 C-20.42291748 37.24430908 -20.40833496 36.30111816 -20.39331055 35.3293457 C-20.33210394 31.81591339 -20.25792492 28.30324554 -20.17504883 24.7902832 C-20.14188084 23.27248379 -20.11382368 21.75456344 -20.09106445 20.23657227 C-20.05736722 18.04911981 -20.00504796 15.86276736 -19.94921875 13.67578125 C-19.92303467 12.36134033 -19.89685059 11.04689941 -19.86987305 9.69262695 C-19.41675367 6.01931535 -18.71970145 4.07483318 -16.4375 1.1875 C-11.15917974 -0.57194009 -5.52395495 0.00286067 0 0 Z " fill="#B9967E" transform="translate(48.4375,17.8125)"/>
<path d="M0 0 C2.26549935 1.76531109 2.94727144 2.64901908 3.38095093 5.53575134 C3.3845311 7.05320702 3.3845311 7.05320702 3.38818359 8.60131836 C3.39764008 9.74938461 3.40709656 10.89745087 3.4168396 12.08030701 C3.41076691 13.32095413 3.40469421 14.56160126 3.3984375 15.83984375 C3.40130768 17.11348282 3.40417786 18.38712189 3.40713501 19.69935608 C3.40917849 22.39550223 3.40513332 25.09083509 3.39111328 27.78686523 C3.37403806 31.23819506 3.38385186 34.68882414 3.40183067 38.14012814 C3.41529703 41.43589158 3.40585903 44.73157115 3.3984375 48.02734375 C3.40451019 49.26596664 3.41058289 50.50458954 3.4168396 51.78074646 C3.40738312 52.93196487 3.39792664 54.08318329 3.38818359 55.26928711 C3.38579681 56.28171982 3.38341003 57.29415253 3.38095093 58.33726501 C2.93871638 61.42835451 2.205738 62.8089087 0 65 C-2.62217843 65.39410347 -4.82102296 65.53814247 -7.44140625 65.49609375 C-8.16488754 65.49754898 -8.88836884 65.49900421 -9.6337738 65.50050354 C-11.16108229 65.49884531 -12.68840761 65.48729226 -14.21557617 65.46655273 C-16.55784718 65.4375576 -18.8978606 65.44595069 -21.24023438 65.45898438 C-22.72396937 65.45274805 -24.2076972 65.44435793 -25.69140625 65.43359375 C-26.39350723 65.43652939 -27.09560822 65.43946503 -27.81898499 65.44248962 C-29.79125977 65.40405273 -29.79125977 65.40405273 -33 65 C-33.66 64.01 -34.32 63.02 -35 62 C-34.34 62 -33.68 62 -33 62 C-33.16226074 61.44586426 -33.32452148 60.89172852 -33.49169922 60.32080078 C-34.05036803 57.77002953 -34.12949671 55.47766028 -34.1328125 52.8671875 C-34.13410156 51.89652344 -34.13539062 50.92585938 -34.13671875 49.92578125 C-34.13285156 48.91902344 -34.12898438 47.91226563 -34.125 46.875 C-34.12886719 45.86050781 -34.13273437 44.84601563 -34.13671875 43.80078125 C-34.13542969 42.83269531 -34.13414063 41.86460938 -34.1328125 40.8671875 C-34.13168457 39.98144043 -34.13055664 39.09569336 -34.12939453 38.18310547 C-34 36 -34 36 -33 34 C-29.61564552 31.74343363 -26.70066592 31.76697485 -22.703125 31.8046875 C-20.89521484 31.81435547 -20.89521484 31.81435547 -19.05078125 31.82421875 C-17.16939453 31.84935547 -17.16939453 31.84935547 -15.25 31.875 C-13.98027344 31.88402344 -12.71054687 31.89304687 -11.40234375 31.90234375 C-8.26814871 31.92590913 -5.13405059 31.96177987 -2 32 C-2 25.4 -2 18.8 -2 12 C-4.97 12 -7.94 12 -11 12 C-11 11.67 -11 11.34 -11 11 C-7.7 11 -4.4 11 -1 11 C-1.020625 9.741875 -1.04125 8.48375 -1.0625 7.1875 C-1.10886083 4.35948913 -0.91692961 2.75078884 0 0 Z " fill="#C4B2AF" transform="translate(65,20)"/>
<path d="M0 0 C0.33 0 0.66 0 1 0 C1.04898438 0.95261719 1.09796875 1.90523437 1.1484375 2.88671875 C1.22320312 4.14097656 1.29796875 5.39523438 1.375 6.6875 C1.44460937 7.92886719 1.51421875 9.17023437 1.5859375 10.44921875 C1.88268057 14.33829368 1.88268057 14.33829368 4 19 C8.95 19 13.9 19 19 19 C18.33942428 14.89995916 18.33942428 14.89995916 15.4375 12.4375 C14.633125 11.633125 13.82875 10.82875 13 10 C13 9.01 13 8.02 13 7 C12.01 7.495 12.01 7.495 11 8 C10.67 8.99 10.34 9.98 10 11 C8.04402816 12.39712274 6.04563599 13.73779907 4 15 C3 14 3 14 2.6875 11.25 C3.07985417 7.16951662 3.95907481 5.72903543 7 3 C10.44981606 2.07594213 12.84994647 1.68917472 16.3125 2.625 C18 4 18 4 20 9 C23.63 9 27.26 9 31 9 C31 15.6 31 22.2 31 29 C20.77 29 10.54 29 0 29 C0 19.43 0 9.86 0 0 Z " fill="#CC9474" transform="translate(32,23)"/>
<path d="M0 0 C2.26549935 1.76531109 2.94727144 2.64901908 3.38095093 5.53575134 C3.3845311 7.05320702 3.3845311 7.05320702 3.38818359 8.60131836 C3.39764008 9.74938461 3.40709656 10.89745087 3.4168396 12.08030701 C3.41076691 13.32095413 3.40469421 14.56160126 3.3984375 15.83984375 C3.40130768 17.11348282 3.40417786 18.38712189 3.40713501 19.69935608 C3.40917849 22.39550223 3.40513332 25.09083509 3.39111328 27.78686523 C3.37403806 31.23819506 3.38385186 34.68882414 3.40183067 38.14012814 C3.41529703 41.43589158 3.40585903 44.73157115 3.3984375 48.02734375 C3.40451019 49.26596664 3.41058289 50.50458954 3.4168396 51.78074646 C3.40738312 52.93196487 3.39792664 54.08318329 3.38818359 55.26928711 C3.38579681 56.28171982 3.38341003 57.29415253 3.38095093 58.33726501 C2.93985726 61.42038007 2.18681317 62.80424002 0 65 C-3.00268555 65.45410156 -3.00268555 65.45410156 -6.63671875 65.390625 C-7.93544922 65.37773438 -9.23417969 65.36484375 -10.57226562 65.3515625 C-11.94402103 65.31814101 -13.31576581 65.28428123 -14.6875 65.25 C-16.07093812 65.22993376 -17.45440384 65.21168319 -18.83789062 65.1953125 C-22.22595649 65.14809207 -25.61263241 65.08224069 -29 65 C-29 64.34 -29 63.68 -29 63 C-19.76 63 -10.52 63 -1 63 C-1.33 60.69 -1.66 58.38 -2 56 C-2.07706078 54.39015227 -2.11819694 52.77794406 -2.11352539 51.16625977 C-2.11344986 50.2858754 -2.11337433 49.40549103 -2.11329651 48.49842834 C-2.10555458 47.10895241 -2.10555458 47.10895241 -2.09765625 45.69140625 C-2.0962413 44.72468491 -2.09482635 43.75796356 -2.09336853 42.76194763 C-2.08780221 39.69543268 -2.07525599 36.62899262 -2.0625 33.5625 C-2.05748065 31.47461043 -2.0529185 29.38671972 -2.04882812 27.29882812 C-2.03784382 22.1991902 -2.02060255 17.09960777 -2 12 C-4.97 12 -7.94 12 -11 12 C-11 11.67 -11 11.34 -11 11 C-7.7 11 -4.4 11 -1 11 C-1.020625 9.741875 -1.04125 8.48375 -1.0625 7.1875 C-1.10886083 4.35948913 -0.91692961 2.75078884 0 0 Z " fill="#D2C6C7" transform="translate(65,20)"/>
<path d="M0 0 C0.33 0 0.66 0 1 0 C1.02505615 0.7206665 1.0501123 1.44133301 1.07592773 2.18383789 C1.19260076 5.47687464 1.31500179 8.76967501 1.4375 12.0625 C1.47681641 13.19623047 1.51613281 14.32996094 1.55664062 15.49804688 C1.79557947 22.0055022 1.79557947 22.0055022 2.53125 28.46875 C3.28013505 34.1103507 3.10280779 39.75410154 3.0625 45.4375 C3.05798828 46.64599609 3.05347656 47.85449219 3.04882812 49.09960938 C3.03710145 52.06645789 3.02068896 55.0332027 3 58 C2.34 58 1.68 58 1 58 C-0.585869 54.828262 -0.37866445 51.36486178 -0.5625 47.875 C-0.60568359 47.12089844 -0.64886719 46.36679688 -0.69335938 45.58984375 C-0.7994832 43.72678112 -0.90025001 41.86341476 -1 40 C-2.485 40.495 -2.485 40.495 -4 41 C-4 40.34 -4 39.68 -4 39 C-4.66 39 -5.32 39 -6 39 C-6 37.35 -6 35.7 -6 34 C-6.66 34 -7.32 34 -8 34 C-9.175625 35.2684375 -9.175625 35.2684375 -10.375 36.5625 C-11.24125 37.366875 -12.1075 38.17125 -13 39 C-15.3125 38.8125 -15.3125 38.8125 -17 38 C-16.95875 37.113125 -16.9175 36.22625 -16.875 35.3125 C-16.85089781 29.4797701 -18.03431022 23.73378308 -19 18 C-17.68 17.67 -16.36 17.34 -15 17 C-14.34 17.99 -13.68 18.98 -13 20 C-13.144375 20.556875 -13.28875 21.11375 -13.4375 21.6875 C-14.30310186 25.24608542 -13.5410862 28.39275865 -13 32 C-12.2575 31.195625 -11.515 30.39125 -10.75 29.5625 C-8.24695171 27.23011409 -7.2819045 26.36465606 -4 26 C-3.67 28.31 -3.34 30.62 -3 33 C-2.01 32.505 -2.01 32.505 -1 32 C-0.67 21.44 -0.34 10.88 0 0 Z " fill="#685E5D" transform="translate(29,24)"/>
<path d="M0 0 C0.66 0 1.32 0 2 0 C2.33 5.28 2.66 10.56 3 16 C11.58 16 20.16 16 29 16 C29 16.33 29 16.66 29 17 C23.06 17 17.12 17 11 17 C10.67 19.31 10.34 21.62 10 24 C17.30899482 25.02325928 24.6379306 25.5140207 32 26 C32 26.33 32 26.66 32 27 C23.09 27 14.18 27 5 27 C5 27.66 5 28.32 5 29 C2.5625 28.625 2.5625 28.625 0 28 C-0.33 27.34 -0.66 26.68 -1 26 C-0.34 26 0.32 26 1 26 C0.83701416 25.44731445 0.67402832 24.89462891 0.50610352 24.32519531 C-0.05544477 21.74526966 -0.1130026 19.43644776 -0.09765625 16.796875 C-0.09443359 15.8171875 -0.09121094 14.8375 -0.08789062 13.828125 C-0.07951172 12.81234375 -0.07113281 11.7965625 -0.0625 10.75 C-0.05798828 9.71875 -0.05347656 8.6875 -0.04882812 7.625 C-0.03706088 5.08327427 -0.02062011 2.54166681 0 0 Z " fill="#C4A498" transform="translate(31,56)"/>
<path d="M0 0 C2.625 -0.1875 2.625 -0.1875 5 0 C5 0.66 5 1.32 5 2 C5.515625 2.0825 6.03125 2.165 6.5625 2.25 C10.03388122 3.3181173 13.13848686 4.73775663 16 7 C17.0625 9.625 17.0625 9.625 17 12 C16.34 12.66 15.68 13.32 15 14 C12.17042171 13.63723355 9.70915709 12.90305236 7 12 C7 11.34 7 10.68 7 10 C6.4225 9.87625 5.845 9.7525 5.25 9.625 C2.89719934 8.97144426 1.04657738 8.34086104 -1 7 C-1.875 5.0625 -1.875 5.0625 -2 3 C-1.34 2.01 -0.68 1.02 0 0 Z " fill="#A6A2B4" transform="translate(71,11)"/>
<path d="M0 0 C0.33 0 0.66 0 1 0 C1.04898438 0.95261719 1.09796875 1.90523437 1.1484375 2.88671875 C1.22320312 4.14097656 1.29796875 5.39523438 1.375 6.6875 C1.44460937 7.92886719 1.51421875 9.17023437 1.5859375 10.44921875 C1.96422094 13.69317772 2.61979976 16.06567185 4 19 C7.3 19.33 10.6 19.66 14 20 C14.66 21.65 15.32 23.3 16 25 C13.33294205 27.66705795 11.71479741 27.35264967 8 27.5625 C3.84673796 27.69920211 3.84673796 27.69920211 0 29 C0 19.43 0 9.86 0 0 Z " fill="#B7714C" transform="translate(32,23)"/>
<path d="M0 0 C0.10054687 0.598125 0.20109375 1.19625 0.3046875 1.8125 C1.30836352 4.97013243 3.34947471 6.34241174 5.8203125 8.4375 C6.40425781 9.2109375 6.40425781 9.2109375 7 10 C6.67 11.32 6.34 12.64 6 14 C1.05 14 -3.9 14 -9 14 C-9.33 12.68 -9.66 11.36 -10 10 C-7.6875 7.25 -7.6875 7.25 -5 5 C-4.34 5 -3.68 5 -3 5 C-2.814375 4.0409375 -2.814375 4.0409375 -2.625 3.0625 C-2.41875 2.381875 -2.2125 1.70125 -2 1 C-1.34 0.67 -0.68 0.34 0 0 Z " fill="#CDC3BD" transform="translate(45,29)"/>
<path d="M0 0 C2.4375 1.5625 2.4375 1.5625 4 4 C4.32168155 6.75802374 4.1862691 9.20596357 4 12 C1.13792848 10.71700242 -1.0245088 9.469364 -3 7 C-3 6.01 -3 5.02 -3 4 C-3.99 4.495 -3.99 4.495 -5 5 C-5.33 5.99 -5.66 6.98 -6 8 C-7.95597184 9.39712274 -9.95436401 10.73779907 -12 12 C-13 11 -13 11 -13.3125 8.25 C-12.93145411 4.28712279 -11.73710248 2.8176055 -9 0 C-5.81452856 -1.59273572 -3.39809153 -0.76164121 0 0 Z " fill="#B94D32" transform="translate(48,26)"/>
<path d="M0 0 C9.9 0 19.8 0 30 0 C29.67 0.99 29.34 1.98 29 3 C20.09 3 11.18 3 2 3 C2 3.66 2 4.32 2 5 C2.66 5 3.32 5 4 5 C4 5.66 4 6.32 4 7 C3.34 7 2.68 7 2 7 C3.39759905 10.54518884 3.39759905 10.54518884 5 14 C4.67 14.99 4.34 15.98 4 17 C5.65 17 7.3 17 9 17 C9 17.33 9 17.66 9 18 C7.02 18 5.04 18 3 18 C2.67 20.64 2.34 23.28 2 26 C1.67 26 1.34 26 1 26 C0.67 17.42 0.34 8.84 0 0 Z " fill="#B3BA97" transform="translate(32,55)"/>
<path d="M0 0 C0 0.66 0 1.32 0 2 C0.99 2.33 1.98 2.66 3 3 C4.1875 5.0625 4.1875 5.0625 5 7 C3.625 9 3.625 9 1 11 C-2.37670434 11.51739825 -5.6389972 11.64995002 -9 11 C-11 8 -11 8 -11 5 C-10.34 5 -9.68 5 -9 5 C-8.71125 4.195625 -8.4225 3.39125 -8.125 2.5625 C-6.19149032 -1.84160538 -4.20681292 -0.99635043 0 0 Z " fill="#DFDAD6" transform="translate(21,17)"/>
<path d="M0 0 C0.33 0 0.66 0 1 0 C1.06955197 7.36273052 1.12283745 14.72539005 1.15543652 22.08838272 C1.17108358 25.50744492 1.1923037 28.92628213 1.22631836 32.34521484 C1.26518985 36.27699071 1.27971721 40.2086759 1.29296875 44.140625 C1.30845261 45.36678528 1.32393646 46.59294556 1.33988953 47.85626221 C1.34011612 48.99714294 1.34034271 50.13802368 1.34057617 51.31347656 C1.34723801 52.31719299 1.35389984 53.32090942 1.36076355 54.3550415 C0.94027655 57.43786585 0.18437526 58.80698388 -2 61 C-5.00268555 61.45410156 -5.00268555 61.45410156 -8.63671875 61.390625 C-10.58481445 61.37128906 -10.58481445 61.37128906 -12.57226562 61.3515625 C-13.94402103 61.31814101 -15.31576581 61.28428123 -16.6875 61.25 C-18.07093812 61.22993376 -19.45440384 61.21168319 -20.83789062 61.1953125 C-24.22595649 61.14809207 -27.61263241 61.08224069 -31 61 C-31 60.34 -31 59.68 -31 59 C-21.76 59 -12.52 59 -3 59 C-3.33 58.01 -3.66 57.02 -4 56 C-2.68 56 -1.36 56 0 56 C0 37.52 0 19.04 0 0 Z " fill="#E7E1DC" transform="translate(67,24)"/>
<path d="M0 0 C2 0.3125 2 0.3125 4 1 C5 3 5 3 4.5 4.625 C3.74395775 8.21620069 4.45709473 11.38063155 5 15 C5.99 14.34 6.98 13.68 8 13 C9.32 13.33 10.64 13.66 12 14 C9.69 16.64 7.38 19.28 5 22 C3.68 21.67 2.36 21.34 1 21 C1.04125 20.113125 1.0825 19.22625 1.125 18.3125 C1.15561212 13.3635406 0.18689645 8.55617703 -0.66015625 3.6953125 C-0.77230469 2.80585937 -0.88445313 1.91640625 -1 1 C-0.67 0.67 -0.34 0.34 0 0 Z " fill="#CABAA6" transform="translate(11,41)"/>
<path d="M0 0 C1.32 0 2.64 0 4 0 C4 0.66 4 1.32 4 2 C4.66 2.33 5.32 2.66 6 3 C6.875 5.3125 6.875 5.3125 7 8 C5.3125 10.375 5.3125 10.375 3 12 C0.875 11.9375 0.875 11.9375 -1 11 C-3 8 -3 8 -2.75 4.9375 C-2 2 -2 2 0 0 Z " fill="#C13D21" transform="translate(12,77)"/>
<path d="M0 0 C2 2 2 2 2.22705078 4.70556641 C2.21134033 6.38658447 2.21134033 6.38658447 2.1953125 8.1015625 C2.18564453 9.91914062 2.18564453 9.91914062 2.17578125 11.7734375 C2.15902344 13.04445313 2.14226562 14.31546875 2.125 15.625 C2.11597656 16.90375 2.10695313 18.1825 2.09765625 19.5 C2.07402303 22.66685167 2.04107629 25.83333424 2 29 C1.01 29 0.02 29 -1 29 C-1 22.4 -1 15.8 -1 9 C-3.97 9 -6.94 9 -10 9 C-10 8.67 -10 8.34 -10 8 C-6.7 8 -3.4 8 0 8 C0 5.36 0 2.72 0 0 Z " fill="#D8B7A1" transform="translate(64,23)"/>
<path d="M0 0 C3.47498228 0.86874557 4.54322016 2.7260669 6.5 5.625 C5.84 6.945 5.18 8.265 4.5 9.625 C-0.87305699 9.97733161 -0.87305699 9.97733161 -3.5 9.625 C-5.5 7.625 -5.5 7.625 -6.5 5.625 C-3.2518797 0.81296992 -3.2518797 0.81296992 0 0 Z " fill="#DCD5CE" transform="translate(79.5,41.375)"/>
<path d="M0 0 C-0.33 0.66 -0.66 1.32 -1 2 C-9.25 2 -17.5 2 -26 2 C-26 1.01 -26 0.02 -26 -1 C-22.04243356 -1.22515501 -18.08402412 -1.42727348 -14.125 -1.625 C-12.99707031 -1.68945312 -11.86914062 -1.75390625 -10.70703125 -1.8203125 C-9.63066406 -1.871875 -8.55429687 -1.9234375 -7.4453125 -1.9765625 C-6.45031738 -2.02893066 -5.45532227 -2.08129883 -4.43017578 -2.13525391 C-2 -2 -2 -2 0 0 Z " fill="#CEAEBA" transform="translate(62,70)"/>
<path d="M0 0 C3.65813817 0.28139524 6.31896306 0.56343786 9.4375 2.5625 C11.73566228 6.14763316 11.28061483 8.79077755 11 13 C8.12206249 11.70989008 6.03816083 10.42638194 4 8 C3.33333333 6 2.66666667 4 2 2 C1.34 1.34 0.68 0.68 0 0 Z " fill="#D06A4A" transform="translate(41,25)"/>
<path d="M0 0 C3.14575756 4.19434341 3.36933647 4.72860047 3.2487793 9.59472656 C3.22853195 10.71558655 3.20828461 11.83644653 3.18742371 12.99127197 C3.15006607 14.19555847 3.11270844 15.39984497 3.07421875 16.640625 C3.04777786 17.87794373 3.02133698 19.11526245 2.99409485 20.39007568 C2.92121614 23.67183138 2.8350523 26.95288422 2.74243164 30.23413086 C2.65110729 33.58553172 2.57753438 36.93726958 2.50195312 40.2890625 C2.35074407 46.85984468 2.18201171 53.43000283 2 60 C1.67 60 1.34 60 1 60 C0.67 40.2 0.34 20.4 0 0 Z " fill="#C7BBBB" transform="translate(65,20)"/>
<path d="M0 0 C0.66 0 1.32 0 2 0 C2.01981934 0.73637695 2.03963867 1.47275391 2.06005859 2.23144531 C2.15537828 5.57132056 2.26502996 8.91057639 2.375 12.25 C2.4059375 13.40886719 2.436875 14.56773438 2.46875 15.76171875 C2.50742187 16.87675781 2.54609375 17.99179688 2.5859375 19.140625 C2.6173584 20.16704102 2.6487793 21.19345703 2.68115234 22.25097656 C2.99636625 24.96867073 3.61032351 26.66924435 5 29 C2.5625 28.625 2.5625 28.625 0 28 C-0.33 27.34 -0.66 26.68 -1 26 C-0.34 26 0.32 26 1 26 C0.83701416 25.44731445 0.67402832 24.89462891 0.50610352 24.32519531 C-0.05544477 21.74526966 -0.1130026 19.43644776 -0.09765625 16.796875 C-0.09443359 15.8171875 -0.09121094 14.8375 -0.08789062 13.828125 C-0.07951172 12.81234375 -0.07113281 11.7965625 -0.0625 10.75 C-0.05798828 9.71875 -0.05347656 8.6875 -0.04882812 7.625 C-0.03706088 5.08327427 -0.02062011 2.54166681 0 0 Z " fill="#AF9184" transform="translate(31,56)"/>
<path d="M0 0 C1.51400391 0.01740234 1.51400391 0.01740234 3.05859375 0.03515625 C4.07050781 0.04417969 5.08242188 0.05320313 6.125 0.0625 C7.29869141 0.07990234 7.29869141 0.07990234 8.49609375 0.09765625 C8.49609375 1.41765625 8.49609375 2.73765625 8.49609375 4.09765625 C7.49609375 5.09765625 7.49609375 5.09765625 5.2109375 5.1953125 C3.83615234 5.17791016 3.83615234 5.17791016 2.43359375 5.16015625 C1.51449219 5.15113281 0.59539063 5.14210938 -0.3515625 5.1328125 C-1.06183594 5.12121094 -1.77210937 5.10960937 -2.50390625 5.09765625 C-3.06640625 3.16015625 -3.06640625 3.16015625 -3.50390625 1.09765625 C-2.50390625 0.09765625 -2.50390625 0.09765625 0 0 Z " fill="#4E433E" transform="translate(52.50390625,44.90234375)"/>
<path d="M0 0 C1.51400391 0.01740234 1.51400391 0.01740234 3.05859375 0.03515625 C4.07050781 0.04417969 5.08242188 0.05320313 6.125 0.0625 C7.29869141 0.07990234 7.29869141 0.07990234 8.49609375 0.09765625 C8.49609375 1.41765625 8.49609375 2.73765625 8.49609375 4.09765625 C7.49609375 5.09765625 7.49609375 5.09765625 5.2109375 5.1953125 C3.83615234 5.17791016 3.83615234 5.17791016 2.43359375 5.16015625 C1.51449219 5.15113281 0.59539063 5.14210938 -0.3515625 5.1328125 C-1.06183594 5.12121094 -1.77210937 5.10960937 -2.50390625 5.09765625 C-3.06640625 3.16015625 -3.06640625 3.16015625 -3.50390625 1.09765625 C-2.50390625 0.09765625 -2.50390625 0.09765625 0 0 Z " fill="#C7522F" transform="translate(38.50390625,44.90234375)"/>
<path d="M0 0 C2.625 -0.1875 2.625 -0.1875 5 0 C5 0.66 5 1.32 5 2 C5.99 2.33 6.98 2.66 8 3 C7.01 4.98 6.02 6.96 5 9 C2.0625 8.25 2.0625 8.25 -1 7 C-2 5.0625 -2 5.0625 -2 3 C-1.34 2.01 -0.68 1.02 0 0 Z " fill="#C96828" transform="translate(71,11)"/>
<path d="M0 0 C1.32 0 2.64 0 4 0 C4 0.66 4 1.32 4 2 C4.66 2.33 5.32 2.66 6 3 C4.68 3 3.36 3 2 3 C2 3.66 2 4.32 2 5 C2.66 5 3.32 5 4 5 C4 5.66 4 6.32 4 7 C3.34 7 2.68 7 2 7 C3.39759905 10.54518884 3.39759905 10.54518884 5 14 C4.67 14.99 4.34 15.98 4 17 C5.65 17 7.3 17 9 17 C9 17.33 9 17.66 9 18 C7.02 18 5.04 18 3 18 C2.67 20.64 2.34 23.28 2 26 C1.67 26 1.34 26 1 26 C0.67 17.42 0.34 8.84 0 0 Z " fill="#B89F9A" transform="translate(32,55)"/>
<path d="M0 0 C5.94 0 11.88 0 18 0 C18 0.99 18 1.98 18 3 C12.06 3 6.12 3 0 3 C0 2.01 0 1.02 0 0 Z " fill="#CEC2BC" transform="translate(36,59)"/>
<path d="M0 0 C0.12375 0.8353125 0.12375 0.8353125 0.25 1.6875 C1.07611824 4.69874039 1.07611824 4.69874039 5 9 C0.71 9 -3.58 9 -8 9 C-7.01 7.68 -6.02 6.36 -5 5 C-4.34 5 -3.68 5 -3 5 C-2.814375 4.0409375 -2.814375 4.0409375 -2.625 3.0625 C-2.41875 2.381875 -2.2125 1.70125 -2 1 C-1.34 0.67 -0.68 0.34 0 0 Z " fill="#75B1C2" transform="translate(45,29)"/>
<path d="M0 0 C1.32 0.66 2.64 1.32 4 2 C4 3.32 4 4.64 4 6 C5.62490954 6.02698189 7.24994633 6.04638757 8.875 6.0625 C9.77992187 6.07410156 10.68484375 6.08570313 11.6171875 6.09765625 C14.0168585 6.16249257 14.0168585 6.16249257 16 5 C15.67 5.99 15.34 6.98 15 8 C14.01257813 7.98839844 13.02515625 7.97679687 12.0078125 7.96484375 C10.72648437 7.95582031 9.44515625 7.94679688 8.125 7.9375 C6.21074219 7.92009766 6.21074219 7.92009766 4.2578125 7.90234375 C1.11335348 7.76823431 1.11335348 7.76823431 -1 9 C-2.49649362 9.12005453 -3.99874793 9.17531451 -5.5 9.1875 C-6.2940625 9.20167969 -7.088125 9.21585938 -7.90625 9.23046875 C-10 9 -10 9 -12 7 C-6.06 6.505 -6.06 6.505 0 6 C0 4.68 0 3.36 0 2 C0 1.34 0 0.68 0 0 Z " fill="#C88C67" transform="translate(46,43)"/>
<path d="M0 0 C0.33 0.99 0.66 1.98 1 3 C-1 6 -1 6 -4.125 6.6875 C-5.07375 6.790625 -6.0225 6.89375 -7 7 C-7 6.34 -7 5.68 -7 5 C-7.66 5 -8.32 5 -9 5 C-8.75 3.125 -8.75 3.125 -8 1 C-5.1673578 -1.05122367 -3.22322359 -1.44489334 0 0 Z " fill="#759F73" transform="translate(79,29)"/>
<path d="M0 0 C1.26650391 0.00966797 1.26650391 0.00966797 2.55859375 0.01953125 C3.43128906 0.03628906 4.30398437 0.05304688 5.203125 0.0703125 C6.53537109 0.08384766 6.53537109 0.08384766 7.89453125 0.09765625 C10.08100558 0.12116673 12.26692594 0.15402751 14.453125 0.1953125 C14.453125 0.5253125 14.453125 0.8553125 14.453125 1.1953125 C8.513125 1.1953125 2.573125 1.1953125 -3.546875 1.1953125 C-3.546875 2.8453125 -3.546875 4.4953125 -3.546875 6.1953125 C-4.866875 6.5253125 -6.186875 6.8553125 -7.546875 7.1953125 C-7.876875 5.5453125 -8.206875 3.8953125 -8.546875 2.1953125 C-5.55561181 0.47325062 -3.44001787 -0.04648673 0 0 Z " fill="#C2A29C" transform="translate(45.546875,71.8046875)"/>
<path d="M0 0 C-2.31 2.64 -4.62 5.28 -7 8 C-8.32 7.67 -9.64 7.34 -11 7 C-11 6.01 -11 5.02 -11 4 C-10.01 4 -9.02 4 -8 4 C-8 3.34 -8 2.68 -8 2 C-4.84916277 -1.03830733 -4.51111527 -1.12777882 0 0 Z " fill="#848F8B" transform="translate(23,55)"/>
<path d="M0 0 C0.66 0 1.32 0 2 0 C2 2.64 2 5.28 2 8 C1.34 8 0.68 8 0 8 C0 8.66 0 9.32 0 10 C1.32 10.33 2.64 10.66 4 11 C1.125 11.1875 1.125 11.1875 -2 11 C-4 8 -4 8 -4 5 C-3.34 5 -2.68 5 -2 5 C-1.34 3.35 -0.68 1.7 0 0 Z " fill="#AA785C" transform="translate(14,17)"/>
<path d="M0 0 C2.125 0.375 2.125 0.375 4 1 C4 2.32 4 3.64 4 5 C2.35 4.67 0.7 4.34 -1 4 C-0.88693303 5.95894361 -0.88693303 5.95894361 0 8 C2.49034386 9.29660434 2.49034386 9.29660434 5 10 C4.34 10.66 3.68 11.32 3 12 C1 11.8125 1 11.8125 -1 11 C-3 8 -3 8 -2.75 4.9375 C-2 2 -2 2 0 0 Z " fill="#B92B16" transform="translate(12,77)"/>
<path d="M0 0 C0.33 0 0.66 0 1 0 C1.33 8.91 1.66 17.82 2 27 C2.99 27 3.98 27 5 27 C4.67 27.99 4.34 28.98 4 30 C2.68 30.33 1.36 30.66 0 31 C0 20.77 0 10.54 0 0 Z " fill="#9D9074" transform="translate(31,24)"/>
<path d="M0 0 C0.99 0.66 1.98 1.32 3 2 C3 2.66 3 3.32 3 4 C3.66 4 4.32 4 5 4 C5 5.65 5 7.3 5 9 C2.69 9 0.38 9 -2 9 C-2 8.34 -2 7.68 -2 7 C-1.34 7 -0.68 7 0 7 C0 4.69 0 2.38 0 0 Z " fill="#CEBCAB" transform="translate(16,18)"/>
<path d="M0 0 C1.65 0.33 3.3 0.66 5 1 C3.68 3.64 2.36 6.28 1 9 C0.67 8.34 0.34 7.68 0 7 C-0.99 6.67 -1.98 6.34 -3 6 C-2.01 4.02 -1.02 2.04 0 0 Z " fill="#4C39BE" transform="translate(78,14)"/>
<path d="M0 0 C1.53166168 4.08443115 0.63081652 7.79455657 0 12 C-3.3 12 -6.6 12 -10 12 C-10 11.67 -10 11.34 -10 11 C-7.03 11 -4.06 11 -1 11 C-1.33 10.34 -1.66 9.68 -2 9 C-2.04022391 6.6670134 -2.04320247 4.33293334 -2 2 C-1.34 2 -0.68 2 0 2 C0 1.34 0 0.68 0 0 Z " fill="#CDA891" transform="translate(64,19)"/>
<path d="M0 0 C0.68707031 0.08378906 1.37414062 0.16757812 2.08203125 0.25390625 C3.43361328 0.40666016 3.43361328 0.40666016 4.8125 0.5625 C5.70582031 0.66691406 6.59914063 0.77132812 7.51953125 0.87890625 C10.13375572 1.15658709 10.13375572 1.15658709 13 0 C12.34 1.32 11.68 2.64 11 4 C5.04296875 4.390625 5.04296875 4.390625 3 4 C1.23828125 1.984375 1.23828125 1.984375 0 0 Z " fill="#A8998A" transform="translate(73,47)"/>
<path d="M0 0 C0.33 0 0.66 0 1 0 C1.07347656 1.01320313 1.07347656 1.01320313 1.1484375 2.046875 C1.22320312 2.93890625 1.29796875 3.8309375 1.375 4.75 C1.44460937 5.63171875 1.51421875 6.5134375 1.5859375 7.421875 C1.99850055 9.99066382 2.71160957 11.75841015 4 14 C1.5625 13.625 1.5625 13.625 -1 13 C-1.33 12.34 -1.66 11.68 -2 11 C-1.34 11 -0.68 11 0 11 C0 7.37 0 3.74 0 0 Z " fill="#AB9372" transform="translate(32,71)"/>
<path d="M0 0 C2 0.3125 2 0.3125 4 1 C4.33 1.66 4.66 2.32 5 3 C3.625 5 3.625 5 2 7 C1.34 7 0.68 7 0 7 C-0.38133299 5.0085944 -0.71325582 3.00720923 -1 1 C-0.67 0.67 -0.34 0.34 0 0 Z " fill="#9E6C1F" transform="translate(11,41)"/>
<path d="M0 0 C0.99 0 1.98 0 3 0 C3.33 1.98 3.66 3.96 4 6 C3.01 6.66 2.02 7.32 1 8 C0.67 7.01 0.34 6.02 0 5 C-0.66 4.34 -1.32 3.68 -2 3 C-1.34 2.01 -0.68 1.02 0 0 Z " fill="#9A5B2B" transform="translate(22,50)"/>
<path d="M0 0 C0.66 0.33 1.32 0.66 2 1 C1.01 2.98 0.02 4.96 -1 7 C-2.98 6.34 -4.96 5.68 -7 5 C-6.401875 4.731875 -5.80375 4.46375 -5.1875 4.1875 C-3.02775192 3.01506533 -1.64209744 1.80630718 0 0 Z " fill="#A7522C" transform="translate(77,13)"/>
<path d="M0 0 C1.98 0.66 3.96 1.32 6 2 C5.34 3.32 4.68 4.64 4 6 C3.34 6 2.68 6 2 6 C2 5.34 2 4.68 2 4 C1.34 4 0.68 4 0 4 C0 2.68 0 1.36 0 0 Z " fill="#804466" transform="translate(23,59)"/>
<path d="M0 0 C0.144375 0.61875 0.28875 1.2375 0.4375 1.875 C0.93152225 4.03258322 0.93152225 4.03258322 2 6 C-0.31 6 -2.62 6 -5 6 C-4.34 5.67 -3.68 5.34 -3 5 C-2.835 4.34 -2.67 3.68 -2.5 3 C-2.335 2.34 -2.17 1.68 -2 1 C-1.34 0.67 -0.68 0.34 0 0 Z " fill="#AE95A2" transform="translate(45,29)"/>
<path d="M0 0 C0.99 0.33 1.98 0.66 3 1 C2.67 2.65 2.34 4.3 2 6 C0.35 6.33 -1.3 6.66 -3 7 C-2.34 6.67 -1.68 6.34 -1 6 C-0.34227572 2.97065509 -0.34227572 2.97065509 0 0 Z " fill="#C221B9" transform="translate(85,18)"/>
<path d="M0 0 C0.66 0 1.32 0 2 0 C2.33 0.99 2.66 1.98 3 3 C5.50447516 4.21869929 5.50447516 4.21869929 8 5 C7.34 5.66 6.68 6.32 6 7 C4 6.8125 4 6.8125 2 6 C0 3 0 3 0 0 Z " fill="#871906" transform="translate(9,82)"/>
<path d="M0 0 C2 2 2 2 2 5 C2.66 5.33 3.32 5.66 4 6 C2.68 6.33 1.36 6.66 0 7 C0 6.34 0 5.68 0 5 C-0.66 5 -1.32 5 -2 5 C-1.125 1.125 -1.125 1.125 0 0 Z " fill="#9BA28B" transform="translate(72,29)"/>
<path d="M0 0 C1.65 0 3.3 0 5 0 C4.67 1.32 4.34 2.64 4 4 C2.68 3.67 1.36 3.34 0 3 C0 2.01 0 1.02 0 0 Z " fill="#C94E1A" transform="translate(37,75)"/>
<path d="M0 0 C1.37562854 1.28965176 2.70766393 2.62689293 4 4 C4 4.66 4 5.32 4 6 C3.01 6.33 2.02 6.66 1 7 C0 6 0 6 -0.0625 2.9375 C-0.041875 1.968125 -0.02125 0.99875 0 0 Z " fill="#C7C2C0" transform="translate(81,42)"/>
<path d="M0 0 C0.66 0 1.32 0 2 0 C2.66 1.32 3.32 2.64 4 4 C3.01 5.485 3.01 5.485 2 7 C1.34 7 0.68 7 0 7 C0 4.69 0 2.38 0 0 Z " fill="#B5B0AE" transform="translate(22,20)"/>
<path d="M0 0 C0.99 0.33 1.98 0.66 3 1 C2.67 1.99 2.34 2.98 2 4 C1.01 3.67 0.02 3.34 -1 3 C-0.67 2.01 -0.34 1.02 0 0 Z " fill="#993A10" transform="translate(17,70)"/>
<path d="M0 0 C0.99 0.33 1.98 0.66 3 1 C2.67 1.66 2.34 2.32 2 3 C1.34 3 0.68 3 0 3 C0 2.01 0 1.02 0 0 Z " fill="#E78034" transform="translate(76,37)"/>
<path d="M0 0 C0.99 0.33 1.98 0.66 3 1 C2.67 1.66 2.34 2.32 2 3 C1.34 3 0.68 3 0 3 C0 2.01 0 1.02 0 0 Z " fill="#C3691F" transform="translate(23,30)"/>
</svg>
